ffmpeg version 2.3.3 Copyright (c) 2000-2014 the FFmpeg developers
  built on Aug 29 2014 09:51:14 with gcc 4.6 (Ubuntu/Linaro 4.6.3-1ubuntu5)
  configuration: 
  libavutil      52. 92.100 / 52. 92.100
  libavcodec     55. 69.100 / 55. 69.100
  libavformat    55. 48.100 / 55. 48.100
  libavdevice    55. 13.102 / 55. 13.102
  libavfilter     4. 11.100 /  4. 11.100
  libswscale      2.  6.100 /  2.  6.100
  libswresample   0. 19.100 /  0. 19.100
[rtsp @ 0x2d7af00] Could not find codec parameters for stream 1 (Audio: none, 8000 Hz, 1 channels): unknown codec
Consider increasing the value for the 'analyzeduration' and 'probesize' options
Guessed Channel Layout for  Input Stream #0.1 : mono
Input #0, rtsp, from 'rtsp://222.197.180.250:50000/video0.sdp':
  Metadata:
    title           : RTSP/RTP stream from IPNC
    comment         : 2?videoCodecType=H.264
  Duration: N/A, start: 0.000000, bitrate: N/A
    Stream #0:0: Video: h264 (Baseline), yuv420p, 1280x720, 15 fps, 15 tbr, 90k tbn, 180k tbc
    Stream #0:1: Audio: none, 8000 Hz, 1 channels
[mp4 @ 0x2f0a3c0] Using AVStream.codec.time_base as a timebase hint to the muxer is deprecated. Set AVStream.time_base instead.
Output #0, segment, to '/home/camera/www/videos/tmp/113/113-%02d.mp4':
  Metadata:
    title           : RTSP/RTP stream from IPNC
    comment         : 2?videoCodecType=H.264
    encoder         : Lavf55.48.100
    Stream #0:0: Video: h264, yuv420p, 1280x720, q=2-31, 15 fps, 90k tbn, 90k tbc
Stream mapping:
  Stream #0:0 -> #0:0 (copy)
Press [q] to stop, [?] for help
[segment @ 0x2faea40] Non-monotonous DTS in output stream 0:0; previous: 0, current: 0; changing to 1. This may result in incorrect timestamps in the output file.
frame=   90 fps=0.0 q=-1.0 size=N/A time=00:00:05.86 bitrate=N/A    frame=   98 fps= 91 q=-1.0 size=N/A time=00:00:06.40 bitrate=N/A    frame=  107 fps= 64 q=-1.0 size=N/A time=00:00:07.00 bitrate=N/A    frame=  117 fps= 51 q=-1.0 size=N/A time=00:00:07.66 bitrate=N/A    frame=  125 fps= 44 q=-1.0 size=N/A time=00:00:08.20 bitrate=N/A    frame=  132 fps= 39 q=-1.0 size=N/A time=00:00:08.66 bitrate=N/A    frame=  142 fps= 36 q=-1.0 size=N/A time=00:00:09.33 bitrate=N/A    frame=  150 fps= 33 q=-1.0 size=N/A time=00:00:09.86 bitrate=N/A    frame=  158 fps= 31 q=-1.0 size=N/A time=00:00:10.40 bitrate=N/A    frame=  167 fps= 30 q=-1.0 size=N/A time=00:00:11.00 bitrate=N/A    frame=  175 fps= 29 q=-1.0 size=N/A time=00:00:11.53 bitrate=N/A    frame=  182 fps= 27 q=-1.0 size=N/A time=00:00:12.00 bitrate=N/A    frame=  191 fps= 26 q=-1.0 size=N/A time=00:00:12.60 bitrate=N/A    frame=  199 fps= 26 q=-1.0 size=N/A time=00:00:13.13 bitrate=N/A    frame=  207 fps= 25 q=-1.0 size=N/A time=00:00:13.66 bitrate=N/A    frame=  215 fps= 24 q=-1.0 size=N/A time=00:00:14.20 bitrate=N/A    frame=  223 fps= 24 q=-1.0 size=N/A time=00:00:14.73 bitrate=N/A    frame=  230 fps= 23 q=-1.0 size=N/A time=00:00:15.20 bitrate=N/A    frame=  239 fps= 23 q=-1.0 size=N/A time=00:00:15.80 bitrate=N/A    frame=  247 fps= 22 q=-1.0 size=N/A time=00:00:16.33 bitrate=N/A    frame=  255 fps= 22 q=-1.0 size=N/A time=00:00:16.86 bitrate=N/A    frame=  263 fps= 22 q=-1.0 size=N/A time=00:00:17.40 bitrate=N/A    frame=  271 fps= 22 q=-1.0 size=N/A time=00:00:17.93 bitrate=N/A    frame=  280 fps= 21 q=-1.0 size=N/A time=00:00:18.53 bitrate=N/A    frame=  288 fps= 21 q=-1.0 size=N/A time=00:00:19.06 bitrate=N/A    frame=  296 fps= 21 q=-1.0 size=N/A time=00:00:19.60 bitrate=N/A    frame=  303 fps= 21 q=-1.0 size=N/A time=00:00:20.06 bitrate=N/A    frame=  311 fps= 20 q=-1.0 size=N/A time=00:00:20.60 bitrate=N/A    frame=  320 fps= 20 q=-1.0 size=N/A time=00:00:21.20 bitrate=N/A    frame=  328 fps= 20 q=-1.0 size=N/A time=00:00:21.73 bitrate=N/A    frame=  336 fps= 20 q=-1.0 size=N/A time=00:00:22.26 bitrate=N/A    frame=  344 fps= 20 q=-1.0 size=N/A time=00:00:22.80 bitrate=N/A    frame=  351 fps= 20 q=-1.0 size=N/A time=00:00:23.26 bitrate=N/A    frame=  359 fps= 19 q=-1.0 size=N/A time=00:00:23.80 bitrate=N/A    frame=  367 fps= 19 q=-1.0 size=N/A time=00:00:24.33 bitrate=N/A    frame=  376 fps= 19 q=-1.0 size=N/A time=00:00:24.93 bitrate=N/A    frame=  383 fps= 19 q=-1.0 size=N/A time=00:00:25.40 bitrate=N/A    frame=  391 fps= 19 q=-1.0 size=N/A time=00:00:25.93 bitrate=N/A    frame=  399 fps= 19 q=-1.0 size=N/A time=00:00:26.46 bitrate=N/A    frame=  407 fps= 19 q=-1.0 size=N/A time=00:00:27.00 bitrate=N/A    frame=  416 fps= 19 q=-1.0 size=N/A time=00:00:27.60 bitrate=N/A    frame=  424 fps= 19 q=-1.0 size=N/A time=00:00:28.13 bitrate=N/A    frame=  432 fps= 19 q=-1.0 size=N/A time=00:00:28.66 bitrate=N/A    frame=  441 fps= 18 q=-1.0 size=N/A time=00:00:29.26 bitrate=N/A    frame=  449 fps= 18 q=-1.0 size=N/A time=00:00:29.80 bitrate=N/A    frame=  457 fps= 18 q=-1.0 size=N/A time=00:00:30.33 bitrate=N/A    frame=  465 fps= 18 q=-1.0 size=N/A time=00:00:30.86 bitrate=N/A    frame=  473 fps= 18 q=-1.0 size=N/A time=00:00:31.40 bitrate=N/A    frame=  482 fps= 18 q=-1.0 size=N/A time=00:00:32.00 bitrate=N/A    frame=  489 fps= 18 q=-1.0 size=N/A time=00:00:32.46 bitrate=N/A    frame=  498 fps= 18 q=-1.0 size=N/A time=00:00:33.06 bitrate=N/A    frame=  506 fps= 18 q=-1.0 size=N/A time=00:00:33.60 bitrate=N/A    frame=  514 fps= 18 q=-1.0 size=N/A time=00:00:34.13 bitrate=N/A    frame=  522 fps= 18 q=-1.0 size=N/A time=00:00:34.66 bitrate=N/A    frame=  530 fps= 18 q=-1.0 size=N/A time=00:00:35.20 bitrate=N/A    frame=  539 fps= 18 q=-1.0 size=N/A time=00:00:35.80 bitrate=N/A    frame=  549 fps= 18 q=-1.0 size=N/A time=00:00:36.46 bitrate=N/A    frame=  556 fps= 18 q=-1.0 size=N/A time=00:00:36.93 bitrate=N/A    frame=  564 fps= 18 q=-1.0 size=N/A time=00:00:37.46 bitrate=N/A    frame=  574 fps= 18 q=-1.0 size=N/A time=00:00:38.13 bitrate=N/A    frame=  581 fps= 17 q=-1.0 size=N/A time=00:00:38.60 bitrate=N/A    frame=  589 fps= 17 q=-1.0 size=N/A time=00:00:39.13 bitrate=N/A    frame=  597 fps= 17 q=-1.0 size=N/A time=00:00:39.66 bitrate=N/A    frame=  607 fps= 17 q=-1.0 size=N/A time=00:00:40.33 bitrate=N/A    frame=  614 fps= 17 q=-1.0 size=N/A time=00:00:40.80 bitrate=N/A    frame=  622 fps= 17 q=-1.0 size=N/A time=00:00:41.33 bitrate=N/A    frame=  630 fps= 17 q=-1.0 size=N/A time=00:00:41.86 bitrate=N/A    frame=  638 fps= 17 q=-1.0 size=N/A time=00:00:42.40 bitrate=N/A    frame=  645 fps= 17 q=-1.0 size=N/A time=00:00:42.86 bitrate=N/A    frame=  655 fps= 17 q=-1.0 size=N/A time=00:00:43.53 bitrate=N/A    frame=  663 fps= 17 q=-1.0 size=N/A time=00:00:44.06 bitrate=N/A    frame=  670 fps= 17 q=-1.0 size=N/A time=00:00:44.53 bitrate=N/A    frame=  678 fps= 17 q=-1.0 size=N/A time=00:00:45.06 bitrate=N/A    frame=  686 fps= 17 q=-1.0 size=N/A time=00:00:45.60 bitrate=N/A    frame=  695 fps= 17 q=-1.0 size=N/A time=00:00:46.20 bitrate=N/A    frame=  703 fps= 17 q=-1.0 size=N/A time=00:00:46.73 bitrate=N/A    frame=  710 fps= 17 q=-1.0 size=N/A time=00:00:47.20 bitrate=N/A    frame=  719 fps= 17 q=-1.0 size=N/A time=00:00:47.80 bitrate=N/A    frame=  727 fps= 17 q=-1.0 size=N/A time=00:00:48.33 bitrate=N/A    frame=  735 fps= 17 q=-1.0 size=N/A time=00:00:48.86 bitrate=N/A    frame=  744 fps= 17 q=-1.0 size=N/A time=00:00:49.46 bitrate=N/A    frame=  752 fps= 17 q=-1.0 size=N/A time=00:00:50.00 bitrate=N/A    frame=  760 fps= 17 q=-1.0 size=N/A time=00:00:50.53 bitrate=N/A    frame=  768 fps= 17 q=-1.0 size=N/A time=00:00:51.06 bitrate=N/A    frame=  777 fps= 17 q=-1.0 size=N/A time=00:00:51.66 bitrate=N/A    frame=  785 fps= 17 q=-1.0 size=N/A time=00:00:52.20 bitrate=N/A    frame=  793 fps= 17 q=-1.0 size=N/A time=00:00:52.73 bitrate=N/A    frame=  801 fps= 17 q=-1.0 size=N/A time=00:00:53.26 bitrate=N/A    frame=  809 fps= 17 q=-1.0 size=N/A time=00:00:53.80 bitrate=N/A    frame=  818 fps= 17 q=-1.0 size=N/A time=00:00:54.40 bitrate=N/A    frame=  825 fps= 17 q=-1.0 size=N/A time=00:00:54.86 bitrate=N/A    frame=  833 fps= 17 q=-1.0 size=N/A time=00:00:55.40 bitrate=N/A    frame=  842 fps= 17 q=-1.0 size=N/A time=00:00:56.00 bitrate=N/A    frame=  849 fps= 17 q=-1.0 size=N/A time=00:00:56.46 bitrate=N/A    frame=  858 fps= 17 q=-1.0 size=N/A time=00:00:57.06 bitrate=N/A    frame=  866 fps= 17 q=-1.0 size=N/A time=00:00:57.60 bitrate=N/A    frame=  874 fps= 17 q=-1.0 size=N/A time=00:00:58.13 bitrate=N/A    frame=  883 fps= 17 q=-1.0 size=N/A time=00:00:58.73 bitrate=N/A    frame=  890 fps= 17 q=-1.0 size=N/A time=00:00:59.20 bitrate=N/A    frame=  898 fps= 17 q=-1.0 size=N/A time=00:00:59.73 bitrate=N/A    frame=  906 fps= 16 q=-1.0 size=N/A time=00:01:00.26 bitrate=N/A    frame=  914 fps= 16 q=-1.0 size=N/A time=00:01:00.80 bitrate=N/A    frame=  923 fps= 16 q=-1.0 size=N/A time=00:01:01.40 bitrate=N/A    frame=  931 fps= 16 q=-1.0 size=N/A time=00:01:01.93 bitrate=N/A    frame=  939 fps= 16 q=-1.0 size=N/A time=00:01:02.46 bitrate=N/A    frame=  948 fps= 16 q=-1.0 size=N/A time=00:01:03.06 bitrate=N/A    frame=  956 fps= 16 q=-1.0 size=N/A time=00:01:03.60 bitrate=N/A    frame=  965 fps= 16 q=-1.0 size=N/A time=00:01:04.20 bitrate=N/A    frame=  972 fps= 16 q=-1.0 size=N/A time=00:01:04.66 bitrate=N/A    frame=  981 fps= 16 q=-1.0 size=N/A time=00:01:05.26 bitrate=N/A    frame=  991 fps= 16 q=-1.0 size=N/A time=00:01:05.93 bitrate=N/A    frame=  998 fps= 16 q=-1.0 size=N/A time=00:01:06.40 bitrate=N/A    frame= 1007 fps= 16 q=-1.0 size=N/A time=00:01:07.00 bitrate=N/A    frame= 1014 fps= 16 q=-1.0 size=N/A time=00:01:07.46 bitrate=N/A    frame= 1023 fps= 16 q=-1.0 size=N/A time=00:01:08.06 bitrate=N/A    frame= 1031 fps= 16 q=-1.0 size=N/A time=00:01:08.60 bitrate=N/A    frame= 1040 fps= 16 q=-1.0 size=N/A time=00:01:09.20 bitrate=N/A    frame= 1048 fps= 16 q=-1.0 size=N/A time=00:01:09.73 bitrate=N/A    frame= 1056 fps= 16 q=-1.0 size=N/A time=00:01:10.26 bitrate=N/A    frame= 1065 fps= 16 q=-1.0 size=N/A time=00:01:10.86 bitrate=N/A    frame= 1073 fps= 16 q=-1.0 size=N/A time=00:01:11.40 bitrate=N/A    frame= 1082 fps= 16 q=-1.0 size=N/A time=00:01:12.00 bitrate=N/A    frame= 1089 fps= 16 q=-1.0 size=N/A time=00:01:12.46 bitrate=N/A    frame= 1097 fps= 16 q=-1.0 size=N/A time=00:01:13.00 bitrate=N/A    frame= 1106 fps= 16 q=-1.0 size=N/A time=00:01:13.60 bitrate=N/A    frame= 1113 fps= 16 q=-1.0 size=N/A time=00:01:14.06 bitrate=N/A    frame= 1121 fps= 16 q=-1.0 size=N/A time=00:01:14.60 bitrate=N/A    frame= 1129 fps= 16 q=-1.0 size=N/A time=00:01:15.13 bitrate=N/A    frame= 1137 fps= 16 q=-1.0 size=N/A time=00:01:15.66 bitrate=N/A    frame= 1146 fps= 16 q=-1.0 size=N/A time=00:01:16.26 bitrate=N/A    frame= 1154 fps= 16 q=-1.0 size=N/A time=00:01:16.80 bitrate=N/A    frame= 1163 fps= 16 q=-1.0 size=N/A time=00:01:17.40 bitrate=N/A    frame= 1171 fps= 16 q=-1.0 size=N/A time=00:01:17.93 bitrate=N/A    frame= 1179 fps= 16 q=-1.0 size=N/A time=00:01:18.46 bitrate=N/A    frame= 1187 fps= 16 q=-1.0 size=N/A time=00:01:19.00 bitrate=N/A    frame= 1195 fps= 16 q=-1.0 size=N/A time=00:01:19.53 bitrate=N/A    frame= 1204 fps= 16 q=-1.0 size=N/A time=00:01:20.13 bitrate=N/A    frame= 1211 fps= 16 q=-1.0 size=N/A time=00:01:20.60 bitrate=N/A    frame= 1220 fps= 16 q=-1.0 size=N/A time=00:01:21.20 bitrate=N/A    frame= 1227 fps= 16 q=-1.0 size=N/A time=00:01:21.66 bitrate=N/A    frame= 1235 fps= 16 q=-1.0 size=N/A time=00:01:22.20 bitrate=N/A    frame= 1244 fps= 16 q=-1.0 size=N/A time=00:01:22.80 bitrate=N/A    frame= 1252 fps= 16 q=-1.0 size=N/A time=00:01:23.33 bitrate=N/A    frame= 1259 fps= 16 q=-1.0 size=N/A time=00:01:23.80 bitrate=N/A    frame= 1267 fps= 16 q=-1.0 size=N/A time=00:01:24.33 bitrate=N/A    frame= 1275 fps= 16 q=-1.0 size=N/A time=00:01:24.86 bitrate=N/A    frame= 1283 fps= 16 q=-1.0 size=N/A time=00:01:25.40 bitrate=N/A    frame= 1291 fps= 16 q=-1.0 size=N/A time=00:01:25.93 bitrate=N/A    frame= 1300 fps= 16 q=-1.0 size=N/A time=00:01:26.53 bitrate=N/A    frame= 1307 fps= 16 q=-1.0 size=N/A time=00:01:27.00 bitrate=N/A    frame= 1315 fps= 16 q=-1.0 size=N/A time=00:01:27.53 bitrate=N/A    frame= 1323 fps= 16 q=-1.0 size=N/A time=00:01:28.06 bitrate=N/A    frame= 1331 fps= 16 q=-1.0 size=N/A time=00:01:28.60 bitrate=N/A    frame= 1339 fps= 16 q=-1.0 size=N/A time=00:01:29.13 bitrate=N/A    frame= 1347 fps= 16 q=-1.0 size=N/A time=00:01:29.66 bitrate=N/A    frame= 1356 fps= 16 q=-1.0 size=N/A time=00:01:30.26 bitrate=N/A    frame= 1363 fps= 16 q=-1.0 size=N/A time=00:01:30.73 bitrate=N/A    frame= 1371 fps= 16 q=-1.0 size=N/A time=00:01:31.26 bitrate=N/A    frame= 1381 fps= 16 q=-1.0 size=N/A time=00:01:31.93 bitrate=N/A    frame= 1389 fps= 16 q=-1.0 size=N/A time=00:01:32.46 bitrate=N/A    frame= 1397 fps= 16 q=-1.0 size=N/A time=00:01:33.00 bitrate=N/A    frame= 1404 fps= 16 q=-1.0 size=N/A time=00:01:33.46 bitrate=N/A    frame= 1413 fps= 16 q=-1.0 size=N/A time=00:01:34.06 bitrate=N/A    frame= 1421 fps= 16 q=-1.0 size=N/A time=00:01:34.60 bitrate=N/A    frame= 1429 fps= 16 q=-1.0 size=N/A time=00:01:35.13 bitrate=N/A    frame= 1438 fps= 16 q=-1.0 size=N/A time=00:01:35.73 bitrate=N/A    frame= 1446 fps= 16 q=-1.0 size=N/A time=00:01:36.26 bitrate=N/A    frame= 1454 fps= 16 q=-1.0 size=N/A time=00:01:36.80 bitrate=N/A    frame= 1463 fps= 16 q=-1.0 size=N/A time=00:01:37.40 bitrate=N/A    frame= 1472 fps= 16 q=-1.0 size=N/A time=00:01:38.00 bitrate=N/A    frame= 1480 fps= 16 q=-1.0 size=N/A time=00:01:38.53 bitrate=N/A    frame= 1488 fps= 16 q=-1.0 size=N/A time=00:01:39.06 bitrate=N/A    frame= 1496 fps= 16 q=-1.0 size=N/A time=00:01:39.60 bitrate=N/A    frame= 1505 fps= 16 q=-1.0 size=N/A time=00:01:40.20 bitrate=N/A    frame= 1513 fps= 16 q=-1.0 size=N/A time=00:01:40.73 bitrate=N/A    frame= 1521 fps= 16 q=-1.0 size=N/A time=00:01:41.26 bitrate=N/A    frame= 1531 fps= 16 q=-1.0 size=N/A time=00:01:41.93 bitrate=N/A    frame= 1538 fps= 16 q=-1.0 size=N/A time=00:01:42.40 bitrate=N/A    frame= 1546 fps= 16 q=-1.0 size=N/A time=00:01:42.93 bitrate=N/A    frame= 1554 fps= 16 q=-1.0 size=N/A time=00:01:43.46 bitrate=N/A    frame= 1563 fps= 16 q=-1.0 size=N/A time=00:01:44.06 bitrate=N/A    frame= 1571 fps= 16 q=-1.0 size=N/A time=00:01:44.60 bitrate=N/A    frame= 1579 fps= 16 q=-1.0 size=N/A time=00:01:45.13 bitrate=N/A    frame= 1585 fps= 16 q=-1.0 size=N/A time=00:01:45.53 bitrate=N/A    frame= 1594 fps= 16 q=-1.0 size=N/A time=00:01:46.13 bitrate=N/A    frame= 1601 fps= 16 q=-1.0 size=N/A time=00:01:46.60 bitrate=N/A    frame= 1610 fps= 16 q=-1.0 size=N/A time=00:01:47.20 bitrate=N/A    frame= 1617 fps= 16 q=-1.0 size=N/A time=00:01:47.66 bitrate=N/A    frame= 1625 fps= 16 q=-1.0 size=N/A time=00:01:48.20 bitrate=N/A    frame= 1633 fps= 16 q=-1.0 size=N/A time=00:01:48.73 bitrate=N/A    frame= 1642 fps= 16 q=-1.0 size=N/A time=00:01:49.33 bitrate=N/A    frame= 1649 fps= 16 q=-1.0 size=N/A time=00:01:49.80 bitrate=N/A    frame= 1658 fps= 16 q=-1.0 size=N/A time=00:01:50.40 bitrate=N/A    frame= 1665 fps= 16 q=-1.0 size=N/A time=00:01:50.86 bitrate=N/A    frame= 1675 fps= 16 q=-1.0 size=N/A time=00:01:51.53 bitrate=N/A    frame= 1682 fps= 16 q=-1.0 size=N/A time=00:01:52.00 bitrate=N/A    frame= 1692 fps= 16 q=-1.0 size=N/A time=00:01:52.66 bitrate=N/A    frame= 1699 fps= 16 q=-1.0 size=N/A time=00:01:53.13 bitrate=N/A    frame= 1707 fps= 16 q=-1.0 size=N/A time=00:01:53.66 bitrate=N/A    frame= 1715 fps= 16 q=-1.0 size=N/A time=00:01:54.20 bitrate=N/A    frame= 1723 fps= 16 q=-1.0 size=N/A time=00:01:54.73 bitrate=N/A    frame= 1731 fps= 16 q=-1.0 size=N/A time=00:01:55.26 bitrate=N/A    frame= 1740 fps= 16 q=-1.0 size=N/A time=00:01:55.86 bitrate=N/A    frame= 1747 fps= 16 q=-1.0 size=N/A time=00:01:56.33 bitrate=N/A    frame= 1755 fps= 16 q=-1.0 size=N/A time=00:01:56.86 bitrate=N/A    frame= 1763 fps= 16 q=-1.0 size=N/A time=00:01:57.40 bitrate=N/A    frame= 1771 fps= 16 q=-1.0 size=N/A time=00:01:57.93 bitrate=N/A    frame= 1779 fps= 16 q=-1.0 size=N/A time=00:01:58.46 bitrate=N/A    frame= 1788 fps= 16 q=-1.0 size=N/A time=00:01:59.06 bitrate=N/A    frame= 1795 fps= 16 q=-1.0 size=N/A time=00:01:59.53 bitrate=N/A    frame= 1803 fps= 16 q=-1.0 size=N/A time=00:02:00.06 bitrate=N/A    frame= 1813 fps= 16 q=-1.0 size=N/A time=00:02:00.73 bitrate=N/A    frame= 1820 fps= 16 q=-1.0 size=N/A time=00:02:01.20 bitrate=N/A    frame= 1828 fps= 16 q=-1.0 size=N/A time=00:02:01.73 bitrate=N/A    frame= 1836 fps= 16 q=-1.0 size=N/A time=00:02:02.26 bitrate=N/A    frame= 1845 fps= 16 q=-1.0 size=N/A time=00:02:02.86 bitrate=N/A    frame= 1853 fps= 16 q=-1.0 size=N/A time=00:02:03.40 bitrate=N/A    frame= 1861 fps= 16 q=-1.0 size=N/A time=00:02:03.93 bitrate=N/A    frame= 1869 fps= 16 q=-1.0 size=N/A time=00:02:04.46 bitrate=N/A    frame= 1877 fps= 16 q=-1.0 size=N/A time=00:02:05.00 bitrate=N/A    frame= 1886 fps= 16 q=-1.0 size=N/A time=00:02:05.60 bitrate=N/A    frame= 1894 fps= 16 q=-1.0 size=N/A time=00:02:06.13 bitrate=N/A    frame= 1901 fps= 16 q=-1.0 size=N/A time=00:02:06.60 bitrate=N/A    frame= 1909 fps= 16 q=-1.0 size=N/A time=00:02:07.13 bitrate=N/A    frame= 1917 fps= 16 q=-1.0 size=N/A time=00:02:07.66 bitrate=N/A    frame= 1926 fps= 16 q=-1.0 size=N/A time=00:02:08.26 bitrate=N/A    frame= 1935 fps= 16 q=-1.0 size=N/A time=00:02:08.86 bitrate=N/A    frame= 1943 fps= 16 q=-1.0 size=N/A time=00:02:09.40 bitrate=N/A    frame= 1951 fps= 16 q=-1.0 size=N/A time=00:02:09.93 bitrate=N/A    frame= 1959 fps= 16 q=-1.0 size=N/A time=00:02:10.46 bitrate=N/A    frame= 1967 fps= 16 q=-1.0 size=N/A time=00:02:11.00 bitrate=N/A    frame= 1976 fps= 16 q=-1.0 size=N/A time=00:02:11.60 bitrate=N/A    frame= 1984 fps= 16 q=-1.0 size=N/A time=00:02:12.13 bitrate=N/A    frame= 1991 fps= 16 q=-1.0 size=N/A time=00:02:12.60 bitrate=N/A    frame= 2000 fps= 16 q=-1.0 size=N/A time=00:02:13.20 bitrate=N/A    frame= 2007 fps= 16 q=-1.0 size=N/A time=00:02:13.66 bitrate=N/A    frame= 2016 fps= 16 q=-1.0 size=N/A time=00:02:14.26 bitrate=N/A    frame= 2024 fps= 16 q=-1.0 size=N/A time=00:02:14.80 bitrate=N/A    frame= 2033 fps= 16 q=-1.0 size=N/A time=00:02:15.40 bitrate=N/A    frame= 2040 fps= 16 q=-1.0 size=N/A time=00:02:15.86 bitrate=N/A    frame= 2049 fps= 16 q=-1.0 size=N/A time=00:02:16.46 bitrate=N/A    frame= 2057 fps= 16 q=-1.0 size=N/A time=00:02:17.00 bitrate=N/A    frame= 2065 fps= 16 q=-1.0 size=N/A time=00:02:17.53 bitrate=N/A    frame= 2074 fps= 16 q=-1.0 size=N/A time=00:02:18.13 bitrate=N/A    frame= 2081 fps= 16 q=-1.0 size=N/A time=00:02:18.60 bitrate=N/A    frame= 2089 fps= 16 q=-1.0 size=N/A time=00:02:19.13 bitrate=N/A    frame= 2097 fps= 16 q=-1.0 size=N/A time=00:02:19.66 bitrate=N/A    frame= 2105 fps= 16 q=-1.0 size=N/A time=00:02:20.20 bitrate=N/A    frame= 2113 fps= 16 q=-1.0 size=N/A time=00:02:20.73 bitrate=N/A    frame= 2122 fps= 16 q=-1.0 size=N/A time=00:02:21.33 bitrate=N/A    frame= 2129 fps= 16 q=-1.0 size=N/A time=00:02:21.80 bitrate=N/A    frame= 2138 fps= 16 q=-1.0 size=N/A time=00:02:22.40 bitrate=N/A    frame= 2145 fps= 16 q=-1.0 size=N/A time=00:02:22.86 bitrate=N/A    frame= 2154 fps= 16 q=-1.0 size=N/A time=00:02:23.46 bitrate=N/A    frame= 2162 fps= 16 q=-1.0 size=N/A time=00:02:24.00 bitrate=N/A    frame= 2170 fps= 16 q=-1.0 size=N/A time=00:02:24.53 bitrate=N/A    frame= 2177 fps= 16 q=-1.0 size=N/A time=00:02:25.00 bitrate=N/A    frame= 2185 fps= 16 q=-1.0 size=N/A time=00:02:25.53 bitrate=N/A    frame= 2193 fps= 16 q=-1.0 size=N/A time=00:02:26.06 bitrate=N/A    frame= 2201 fps= 16 q=-1.0 size=N/A time=00:02:26.60 bitrate=N/A    frame= 2209 fps= 16 q=-1.0 size=N/A time=00:02:27.13 bitrate=N/A    frame= 2218 fps= 16 q=-1.0 size=N/A time=00:02:27.73 bitrate=N/A    frame= 2225 fps= 16 q=-1.0 size=N/A time=00:02:28.20 bitrate=N/A    frame= 2233 fps= 16 q=-1.0 size=N/A time=00:02:28.73 bitrate=N/A    frame= 2241 fps= 16 q=-1.0 size=N/A time=00:02:29.26 bitrate=N/A    frame= 2249 fps= 16 q=-1.0 size=N/A time=00:02:29.80 bitrate=N/A    frame= 2257 fps= 16 q=-1.0 size=N/A time=00:02:30.33 bitrate=N/A    frame= 2266 fps= 16 q=-1.0 size=N/A time=00:02:30.93 bitrate=N/A    frame= 2273 fps= 16 q=-1.0 size=N/A time=00:02:31.40 bitrate=N/A    frame= 2282 fps= 16 q=-1.0 size=N/A time=00:02:32.00 bitrate=N/A    frame= 2289 fps= 16 q=-1.0 size=N/A time=00:02:32.46 bitrate=N/A    frame= 2297 fps= 16 q=-1.0 size=N/A time=00:02:33.00 bitrate=N/A    frame= 2306 fps= 16 q=-1.0 size=N/A time=00:02:33.60 bitrate=N/A    frame= 2314 fps= 16 q=-1.0 size=N/A time=00:02:34.13 bitrate=N/A    frame= 2322 fps= 16 q=-1.0 size=N/A time=00:02:34.66 bitrate=N/A    frame= 2330 fps= 16 q=-1.0 size=N/A time=00:02:35.20 bitrate=N/A    frame= 2338 fps= 16 q=-1.0 size=N/A time=00:02:35.73 bitrate=N/A    frame= 2347 fps= 16 q=-1.0 size=N/A time=00:02:36.33 bitrate=N/A    frame= 2354 fps= 16 q=-1.0 size=N/A time=00:02:36.80 bitrate=N/A    frame= 2362 fps= 16 q=-1.0 size=N/A time=00:02:37.33 bitrate=N/A    frame= 2370 fps= 16 q=-1.0 size=N/A time=00:02:37.86 bitrate=N/A    frame= 2378 fps= 16 q=-1.0 size=N/A time=00:02:38.40 bitrate=N/A    frame= 2385 fps= 16 q=-1.0 size=N/A time=00:02:38.86 bitrate=N/A    frame= 2394 fps= 16 q=-1.0 size=N/A time=00:02:39.46 bitrate=N/A    frame= 2402 fps= 16 q=-1.0 size=N/A time=00:02:40.00 bitrate=N/A    frame= 2411 fps= 16 q=-1.0 size=N/A time=00:02:40.60 bitrate=N/A    frame= 2418 fps= 16 q=-1.0 size=N/A time=00:02:41.06 bitrate=N/A    frame= 2427 fps= 16 q=-1.0 size=N/A time=00:02:41.66 bitrate=N/A    frame= 2435 fps= 16 q=-1.0 size=N/A time=00:02:42.20 bitrate=N/A    frame= 2444 fps= 16 q=-1.0 size=N/A time=00:02:42.80 bitrate=N/A    frame= 2451 fps= 16 q=-1.0 size=N/A time=00:02:43.26 bitrate=N/A    frame= 2460 fps= 16 q=-1.0 size=N/A time=00:02:43.86 bitrate=N/A    frame= 2466 fps= 16 q=-1.0 size=N/A time=00:02:44.26 bitrate=N/A    frame= 2475 fps= 16 q=-1.0 size=N/A time=00:02:44.86 bitrate=N/A    frame= 2484 fps= 16 q=-1.0 size=N/A time=00:02:45.46 bitrate=N/A    frame= 2492 fps= 16 q=-1.0 size=N/A time=00:02:46.00 bitrate=N/A    frame= 2499 fps= 16 q=-1.0 size=N/A time=00:02:46.46 bitrate=N/A    frame= 2508 fps= 16 q=-1.0 size=N/A time=00:02:47.06 bitrate=N/A    frame= 2518 fps= 16 q=-1.0 size=N/A time=00:02:47.73 bitrate=N/A    frame= 2526 fps= 16 q=-1.0 size=N/A time=00:02:48.26 bitrate=N/A    frame= 2534 fps= 16 q=-1.0 size=N/A time=00:02:48.80 bitrate=N/A    frame= 2542 fps= 16 q=-1.0 size=N/A time=00:02:49.33 bitrate=N/A    frame= 2550 fps= 16 q=-1.0 size=N/A time=00:02:49.86 bitrate=N/A    frame= 2559 fps= 16 q=-1.0 size=N/A time=00:02:50.46 bitrate=N/A    frame= 2567 fps= 16 q=-1.0 size=N/A time=00:02:51.00 bitrate=N/A    frame= 2575 fps= 16 q=-1.0 size=N/A time=00:02:51.53 bitrate=N/A    frame= 2583 fps= 15 q=-1.0 size=N/A time=00:02:52.06 bitrate=N/A    frame= 2593 fps= 16 q=-1.0 size=N/A time=00:02:52.73 bitrate=N/A    frame= 2601 fps= 15 q=-1.0 size=N/A time=00:02:53.26 bitrate=N/A    frame= 2609 fps= 15 q=-1.0 size=N/A time=00:02:53.80 bitrate=N/A    frame= 2618 fps= 16 q=-1.0 size=N/A time=00:02:54.40 bitrate=N/A    frame= 2625 fps= 15 q=-1.0 size=N/A time=00:02:54.86 bitrate=N/A    frame= 2633 fps= 15 q=-1.0 size=N/A time=00:02:55.40 bitrate=N/A    frame= 2641 fps= 15 q=-1.0 size=N/A time=00:02:55.93 bitrate=N/A    frame= 2649 fps= 15 q=-1.0 size=N/A time=00:02:56.46 bitrate=N/A    frame= 2657 fps= 15 q=-1.0 size=N/A time=00:02:57.00 bitrate=N/A    frame= 2666 fps= 15 q=-1.0 size=N/A time=00:02:57.60 bitrate=N/A    frame= 2673 fps= 15 q=-1.0 size=N/A time=00:02:58.06 bitrate=N/A    frame= 2681 fps= 15 q=-1.0 size=N/A time=00:02:58.60 bitrate=N/A    frame= 2689 fps= 15 q=-1.0 size=N/A time=00:02:59.13 bitrate=N/A    frame= 2696 fps= 15 q=-1.0 size=N/A time=00:02:59.60 bitrate=N/A    frame= 2705 fps= 15 q=-1.0 size=N/A time=00:03:00.20 bitrate=N/A    frame= 2712 fps= 15 q=-1.0 size=N/A time=00:03:00.66 bitrate=N/A    frame= 2720 fps= 15 q=-1.0 size=N/A time=00:03:01.20 bitrate=N/A    frame= 2729 fps= 15 q=-1.0 size=N/A time=00:03:01.80 bitrate=N/A    frame= 2736 fps= 15 q=-1.0 size=N/A time=00:03:02.26 bitrate=N/A    frame= 2744 fps= 15 q=-1.0 size=N/A time=00:03:02.80 bitrate=N/A    frame= 2753 fps= 15 q=-1.0 size=N/A time=00:03:03.40 bitrate=N/A    frame= 2760 fps= 15 q=-1.0 size=N/A time=00:03:03.86 bitrate=N/A    frame= 2770 fps= 15 q=-1.0 size=N/A time=00:03:04.53 bitrate=N/A    frame= 2778 fps= 15 q=-1.0 size=N/A time=00:03:05.06 bitrate=N/A    frame= 2787 fps= 15 q=-1.0 size=N/A time=00:03:05.66 bitrate=N/A    frame= 2794 fps= 15 q=-1.0 size=N/A time=00:03:06.13 bitrate=N/A    frame= 2802 fps= 15 q=-1.0 size=N/A time=00:03:06.66 bitrate=N/A    frame= 2810 fps= 15 q=-1.0 size=N/A time=00:03:07.20 bitrate=N/A    frame= 2818 fps= 15 q=-1.0 size=N/A time=00:03:07.73 bitrate=N/A    frame= 2827 fps= 15 q=-1.0 size=N/A time=00:03:08.33 bitrate=N/A    frame= 2835 fps= 15 q=-1.0 size=N/A time=00:03:08.86 bitrate=N/A    frame= 2845 fps= 15 q=-1.0 size=N/A time=00:03:09.53 bitrate=N/A    frame= 2854 fps= 15 q=-1.0 size=N/A time=00:03:10.13 bitrate=N/A    frame= 2862 fps= 15 q=-1.0 size=N/A time=00:03:10.66 bitrate=N/A    frame= 2869 fps= 15 q=-1.0 size=N/A time=00:03:11.13 bitrate=N/A    frame= 2877 fps= 15 q=-1.0 size=N/A time=00:03:11.66 bitrate=N/A    frame= 2885 fps= 15 q=-1.0 size=N/A time=00:03:12.20 bitrate=N/A    frame= 2893 fps= 15 q=-1.0 size=N/A time=00:03:12.73 bitrate=N/A    frame= 2901 fps= 15 q=-1.0 size=N/A time=00:03:13.26 bitrate=N/A    frame= 2909 fps= 15 q=-1.0 size=N/A time=00:03:13.80 bitrate=N/A    frame= 2917 fps= 15 q=-1.0 size=N/A time=00:03:14.33 bitrate=N/A    frame= 2925 fps= 15 q=-1.0 size=N/A time=00:03:14.86 bitrate=N/A    frame= 2933 fps= 15 q=-1.0 size=N/A time=00:03:15.40 bitrate=N/A    frame= 2941 fps= 15 q=-1.0 size=N/A time=00:03:15.93 bitrate=N/A    frame= 2950 fps= 15 q=-1.0 size=N/A time=00:03:16.53 bitrate=N/A    frame= 2958 fps= 15 q=-1.0 size=N/A time=00:03:17.06 bitrate=N/A    frame= 2966 fps= 15 q=-1.0 size=N/A time=00:03:17.60 bitrate=N/A    frame= 2974 fps= 15 q=-1.0 size=N/A time=00:03:18.13 bitrate=N/A    frame= 2982 fps= 15 q=-1.0 size=N/A time=00:03:18.66 bitrate=N/A    frame= 2990 fps= 15 q=-1.0 size=N/A time=00:03:19.20 bitrate=N/A    frame= 2998 fps= 15 q=-1.0 size=N/A time=00:03:19.73 bitrate=N/A    frame= 3005 fps= 15 q=-1.0 size=N/A time=00:03:20.20 bitrate=N/A    frame= 3013 fps= 15 q=-1.0 size=N/A time=00:03:20.73 bitrate=N/A    frame= 3021 fps= 15 q=-1.0 size=N/A time=00:03:21.26 bitrate=N/A    frame= 3029 fps= 15 q=-1.0 size=N/A time=00:03:21.80 bitrate=N/A    frame= 3037 fps= 15 q=-1.0 size=N/A time=00:03:22.33 bitrate=N/A    frame= 3046 fps= 15 q=-1.0 size=N/A time=00:03:22.93 bitrate=N/A    frame= 3053 fps= 15 q=-1.0 size=N/A time=00:03:23.40 bitrate=N/A    frame= 3061 fps= 15 q=-1.0 size=N/A time=00:03:23.93 bitrate=N/A    frame= 3069 fps= 15 q=-1.0 size=N/A time=00:03:24.46 bitrate=N/A    frame= 3077 fps= 15 q=-1.0 size=N/A time=00:03:25.00 bitrate=N/A    frame= 3085 fps= 15 q=-1.0 size=N/A time=00:03:25.53 bitrate=N/A    frame= 3092 fps= 15 q=-1.0 size=N/A time=00:03:26.00 bitrate=N/A    frame= 3101 fps= 15 q=-1.0 size=N/A time=00:03:26.60 bitrate=N/A    frame= 3109 fps= 15 q=-1.0 size=N/A time=00:03:27.13 bitrate=N/A    frame= 3117 fps= 15 q=-1.0 size=N/A time=00:03:27.66 bitrate=N/A    frame= 3125 fps= 15 q=-1.0 size=N/A time=00:03:28.20 bitrate=N/A    frame= 3133 fps= 15 q=-1.0 size=N/A time=00:03:28.73 bitrate=N/A    frame= 3141 fps= 15 q=-1.0 size=N/A time=00:03:29.26 bitrate=N/A    frame= 3149 fps= 15 q=-1.0 size=N/A time=00:03:29.80 bitrate=N/A    frame= 3157 fps= 15 q=-1.0 size=N/A time=00:03:30.33 bitrate=N/A    frame= 3165 fps= 15 q=-1.0 size=N/A time=00:03:30.86 bitrate=N/A    frame= 3173 fps= 15 q=-1.0 size=N/A time=00:03:31.40 bitrate=N/A    frame= 3181 fps= 15 q=-1.0 size=N/A time=00:03:31.93 bitrate=N/A    frame= 3190 fps= 15 q=-1.0 size=N/A time=00:03:32.53 bitrate=N/A    frame= 3198 fps= 15 q=-1.0 size=N/A time=00:03:33.06 bitrate=N/A    frame= 3206 fps= 15 q=-1.0 size=N/A time=00:03:33.60 bitrate=N/A    frame= 3213 fps= 15 q=-1.0 size=N/A time=00:03:34.06 bitrate=N/A    frame= 3222 fps= 15 q=-1.0 size=N/A time=00:03:34.66 bitrate=N/A    frame= 3230 fps= 15 q=-1.0 size=N/A time=00:03:35.20 bitrate=N/A    frame= 3238 fps= 15 q=-1.0 size=N/A time=00:03:35.73 bitrate=N/A    frame= 3246 fps= 15 q=-1.0 size=N/A time=00:03:36.26 bitrate=N/A    frame= 3254 fps= 15 q=-1.0 size=N/A time=00:03:36.80 bitrate=N/A    frame= 3263 fps= 15 q=-1.0 size=N/A time=00:03:37.40 bitrate=N/A    frame= 3271 fps= 15 q=-1.0 size=N/A time=00:03:37.93 bitrate=N/A    frame= 3279 fps= 15 q=-1.0 size=N/A time=00:03:38.46 bitrate=N/A    frame= 3287 fps= 15 q=-1.0 size=N/A time=00:03:39.00 bitrate=N/A    frame= 3296 fps= 15 q=-1.0 size=N/A time=00:03:39.60 bitrate=N/A    frame= 3303 fps= 15 q=-1.0 size=N/A time=00:03:40.06 bitrate=N/A    frame= 3311 fps= 15 q=-1.0 size=N/A time=00:03:40.60 bitrate=N/A    frame= 3320 fps= 15 q=-1.0 size=N/A time=00:03:41.20 bitrate=N/A    frame= 3328 fps= 15 q=-1.0 size=N/A time=00:03:41.73 bitrate=N/A    frame= 3336 fps= 15 q=-1.0 size=N/A time=00:03:42.26 bitrate=N/A    frame= 3345 fps= 15 q=-1.0 size=N/A time=00:03:42.86 bitrate=N/A    frame= 3353 fps= 15 q=-1.0 size=N/A time=00:03:43.40 bitrate=N/A    frame= 3361 fps= 15 q=-1.0 size=N/A time=00:03:43.93 bitrate=N/A    frame= 3370 fps= 15 q=-1.0 size=N/A time=00:03:44.53 bitrate=N/A    frame= 3378 fps= 15 q=-1.0 size=N/A time=00:03:45.06 bitrate=N/A    frame= 3387 fps= 15 q=-1.0 size=N/A time=00:03:45.66 bitrate=N/A    frame= 3395 fps= 15 q=-1.0 size=N/A time=00:03:46.20 bitrate=N/A    frame= 3403 fps= 15 q=-1.0 size=N/A time=00:03:46.73 bitrate=N/A    frame= 3411 fps= 15 q=-1.0 size=N/A time=00:03:47.26 bitrate=N/A    frame= 3421 fps= 15 q=-1.0 size=N/A time=00:03:47.93 bitrate=N/A    frame= 3428 fps= 15 q=-1.0 size=N/A time=00:03:48.40 bitrate=N/A    frame= 3437 fps= 15 q=-1.0 size=N/A time=00:03:49.00 bitrate=N/A    frame= 3444 fps= 15 q=-1.0 size=N/A time=00:03:49.46 bitrate=N/A    frame= 3453 fps= 15 q=-1.0 size=N/A time=00:03:50.06 bitrate=N/A    frame= 3460 fps= 15 q=-1.0 size=N/A time=00:03:50.53 bitrate=N/A    frame= 3469 fps= 15 q=-1.0 size=N/A time=00:03:51.13 bitrate=N/A    frame= 3476 fps= 15 q=-1.0 size=N/A time=00:03:51.60 bitrate=N/A    frame= 3484 fps= 15 q=-1.0 size=N/A time=00:03:52.13 bitrate=N/A    frame= 3492 fps= 15 q=-1.0 size=N/A time=00:03:52.66 bitrate=N/A    frame= 3501 fps= 15 q=-1.0 size=N/A time=00:03:53.26 bitrate=N/A    frame= 3509 fps= 15 q=-1.0 size=N/A time=00:03:53.80 bitrate=N/A    frame= 3518 fps= 15 q=-1.0 size=N/A time=00:03:54.40 bitrate=N/A    frame= 3526 fps= 15 q=-1.0 size=N/A time=00:03:54.93 bitrate=N/A    frame= 3533 fps= 15 q=-1.0 size=N/A time=00:03:55.40 bitrate=N/A    frame= 3541 fps= 15 q=-1.0 size=N/A time=00:03:55.93 bitrate=N/A    frame= 3549 fps= 15 q=-1.0 size=N/A time=00:03:56.46 bitrate=N/A    frame= 3557 fps= 15 q=-1.0 size=N/A time=00:03:57.00 bitrate=N/A    frame= 3565 fps= 15 q=-1.0 size=N/A time=00:03:57.53 bitrate=N/A    frame= 3574 fps= 15 q=-1.0 size=N/A time=00:03:58.13 bitrate=N/A    frame= 3581 fps= 15 q=-1.0 size=N/A time=00:03:58.60 bitrate=N/A    frame= 3589 fps= 15 q=-1.0 size=N/A time=00:03:59.13 bitrate=N/A    frame= 3597 fps= 15 q=-1.0 size=N/A time=00:03:59.66 bitrate=N/A    frame= 3605 fps= 15 q=-1.0 size=N/A time=00:04:00.20 bitrate=N/A    frame= 3613 fps= 15 q=-1.0 size=N/A time=00:04:00.73 bitrate=N/A    frame= 3621 fps= 15 q=-1.0 size=N/A time=00:04:01.26 bitrate=N/A    frame= 3629 fps= 15 q=-1.0 size=N/A time=00:04:01.80 bitrate=N/A    frame= 3637 fps= 15 q=-1.0 size=N/A time=00:04:02.33 bitrate=N/A    frame= 3645 fps= 15 q=-1.0 size=N/A time=00:04:02.86 bitrate=N/A    frame= 3653 fps= 15 q=-1.0 size=N/A time=00:04:03.40 bitrate=N/A    frame= 3662 fps= 15 q=-1.0 size=N/A time=00:04:04.00 bitrate=N/A    frame= 3670 fps= 15 q=-1.0 size=N/A time=00:04:04.53 bitrate=N/A    frame= 3677 fps= 15 q=-1.0 size=N/A time=00:04:05.00 bitrate=N/A    frame= 3685 fps= 15 q=-1.0 size=N/A time=00:04:05.53 bitrate=N/A    frame= 3693 fps= 15 q=-1.0 size=N/A time=00:04:06.06 bitrate=N/A    frame= 3701 fps= 15 q=-1.0 size=N/A time=00:04:06.60 bitrate=N/A    frame= 3709 fps= 15 q=-1.0 size=N/A time=00:04:07.13 bitrate=N/A    frame= 3718 fps= 15 q=-1.0 size=N/A time=00:04:07.73 bitrate=N/A    frame= 3725 fps= 15 q=-1.0 size=N/A time=00:04:08.20 bitrate=N/A    frame= 3734 fps= 15 q=-1.0 size=N/A time=00:04:08.80 bitrate=N/A    frame= 3741 fps= 15 q=-1.0 size=N/A time=00:04:09.26 bitrate=N/A    frame= 3750 fps= 15 q=-1.0 size=N/A time=00:04:09.86 bitrate=N/A    frame= 3758 fps= 15 q=-1.0 size=N/A time=00:04:10.40 bitrate=N/A    frame= 3766 fps= 15 q=-1.0 size=N/A time=00:04:10.93 bitrate=N/A    frame= 3774 fps= 15 q=-1.0 size=N/A time=00:04:11.46 bitrate=N/A    frame= 3782 fps= 15 q=-1.0 size=N/A time=00:04:12.00 bitrate=N/A    frame= 3791 fps= 15 q=-1.0 size=N/A time=00:04:12.60 bitrate=N/A    frame= 3799 fps= 15 q=-1.0 size=N/A time=00:04:13.13 bitrate=N/A    frame= 3807 fps= 15 q=-1.0 size=N/A time=00:04:13.66 bitrate=N/A    frame= 3815 fps= 15 q=-1.0 size=N/A time=00:04:14.20 bitrate=N/A    frame= 3824 fps= 15 q=-1.0 size=N/A time=00:04:14.80 bitrate=N/A    frame= 3831 fps= 15 q=-1.0 size=N/A time=00:04:15.26 bitrate=N/A    frame= 3839 fps= 15 q=-1.0 size=N/A time=00:04:15.80 bitrate=N/A    frame= 3848 fps= 15 q=-1.0 size=N/A time=00:04:16.40 bitrate=N/A    frame= 3855 fps= 15 q=-1.0 size=N/A time=00:04:16.86 bitrate=N/A    frame= 3863 fps= 15 q=-1.0 size=N/A time=00:04:17.40 bitrate=N/A    frame= 3872 fps= 15 q=-1.0 size=N/A time=00:04:18.00 bitrate=N/A    frame= 3880 fps= 15 q=-1.0 size=N/A time=00:04:18.53 bitrate=N/A    frame= 3887 fps= 15 q=-1.0 size=N/A time=00:04:19.00 bitrate=N/A    frame= 3895 fps= 15 q=-1.0 size=N/A time=00:04:19.53 bitrate=N/A    frame= 3903 fps= 15 q=-1.0 size=N/A time=00:04:20.06 bitrate=N/A    frame= 3911 fps= 15 q=-1.0 size=N/A time=00:04:20.60 bitrate=N/A    frame= 3920 fps= 15 q=-1.0 size=N/A time=00:04:21.20 bitrate=N/A    frame= 3928 fps= 15 q=-1.0 size=N/A time=00:04:21.73 bitrate=N/A    frame= 3935 fps= 15 q=-1.0 size=N/A time=00:04:22.20 bitrate=N/A    frame= 3943 fps= 15 q=-1.0 size=N/A time=00:04:22.73 bitrate=N/A    frame= 3951 fps= 15 q=-1.0 size=N/A time=00:04:23.26 bitrate=N/A    frame= 3959 fps= 15 q=-1.0 size=N/A time=00:04:23.80 bitrate=N/A    frame= 3968 fps= 15 q=-1.0 size=N/A time=00:04:24.40 bitrate=N/A    frame= 3976 fps= 15 q=-1.0 size=N/A time=00:04:24.93 bitrate=N/A    frame= 3983 fps= 15 q=-1.0 size=N/A time=00:04:25.40 bitrate=N/A    frame= 3991 fps= 15 q=-1.0 size=N/A time=00:04:25.93 bitrate=N/A    frame= 3999 fps= 15 q=-1.0 size=N/A time=00:04:26.46 bitrate=N/A    frame= 4007 fps= 15 q=-1.0 size=N/A time=00:04:27.00 bitrate=N/A    frame= 4016 fps= 15 q=-1.0 size=N/A time=00:04:27.60 bitrate=N/A    frame= 4024 fps= 15 q=-1.0 size=N/A time=00:04:28.13 bitrate=N/A    frame= 4031 fps= 15 q=-1.0 size=N/A time=00:04:28.60 bitrate=N/A    frame= 4039 fps= 15 q=-1.0 size=N/A time=00:04:29.13 bitrate=N/A    frame= 4047 fps= 15 q=-1.0 size=N/A time=00:04:29.66 bitrate=N/A    frame= 4056 fps= 15 q=-1.0 size=N/A time=00:04:30.26 bitrate=N/A    frame= 4064 fps= 15 q=-1.0 size=N/A time=00:04:30.80 bitrate=N/A    frame= 4072 fps= 15 q=-1.0 size=N/A time=00:04:31.33 bitrate=N/A    frame= 4079 fps= 15 q=-1.0 size=N/A time=00:04:31.80 bitrate=N/A    frame= 4087 fps= 15 q=-1.0 size=N/A time=00:04:32.33 bitrate=N/A    frame= 4095 fps= 15 q=-1.0 size=N/A time=00:04:32.86 bitrate=N/A    frame= 4103 fps= 15 q=-1.0 size=N/A time=00:04:33.40 bitrate=N/A    frame= 4112 fps= 15 q=-1.0 size=N/A time=00:04:34.00 bitrate=N/A    frame= 4120 fps= 15 q=-1.0 size=N/A time=00:04:34.53 bitrate=N/A    frame= 4129 fps= 15 q=-1.0 size=N/A time=00:04:35.13 bitrate=N/A    frame= 4137 fps= 15 q=-1.0 size=N/A time=00:04:35.66 bitrate=N/A    frame= 4145 fps= 15 q=-1.0 size=N/A time=00:04:36.20 bitrate=N/A    frame= 4153 fps= 15 q=-1.0 size=N/A time=00:04:36.73 bitrate=N/A    frame= 4160 fps= 15 q=-1.0 size=N/A time=00:04:37.20 bitrate=N/A    frame= 4168 fps= 15 q=-1.0 size=N/A time=00:04:37.73 bitrate=N/A    frame= 4176 fps= 15 q=-1.0 size=N/A time=00:04:38.26 bitrate=N/A    frame= 4185 fps= 15 q=-1.0 size=N/A time=00:04:38.86 bitrate=N/A    frame= 4193 fps= 15 q=-1.0 size=N/A time=00:04:39.40 bitrate=N/A    frame= 4201 fps= 15 q=-1.0 size=N/A time=00:04:39.93 bitrate=N/A    frame= 4208 fps= 15 q=-1.0 size=N/A time=00:04:40.40 bitrate=N/A    frame= 4216 fps= 15 q=-1.0 size=N/A time=00:04:40.93 bitrate=N/A    frame= 4224 fps= 15 q=-1.0 size=N/A time=00:04:41.46 bitrate=N/A    frame= 4233 fps= 15 q=-1.0 size=N/A time=00:04:42.06 bitrate=N/A    frame= 4241 fps= 15 q=-1.0 size=N/A time=00:04:42.60 bitrate=N/A    frame= 4249 fps= 15 q=-1.0 size=N/A time=00:04:43.13 bitrate=N/A    frame= 4256 fps= 15 q=-1.0 size=N/A time=00:04:43.60 bitrate=N/A    frame= 4264 fps= 15 q=-1.0 size=N/A time=00:04:44.13 bitrate=N/A    frame= 4272 fps= 15 q=-1.0 size=N/A time=00:04:44.66 bitrate=N/A    frame= 4281 fps= 15 q=-1.0 size=N/A time=00:04:45.26 bitrate=N/A    frame= 4289 fps= 15 q=-1.0 size=N/A time=00:04:45.80 bitrate=N/A    frame= 4298 fps= 15 q=-1.0 size=N/A time=00:04:46.40 bitrate=N/A    frame= 4306 fps= 15 q=-1.0 size=N/A time=00:04:46.93 bitrate=N/A    frame= 4314 fps= 15 q=-1.0 size=N/A time=00:04:47.46 bitrate=N/A    frame= 4321 fps= 15 q=-1.0 size=N/A time=00:04:47.93 bitrate=N/A    frame= 4329 fps= 15 q=-1.0 size=N/A time=00:04:48.46 bitrate=N/A    frame= 4337 fps= 15 q=-1.0 size=N/A time=00:04:49.00 bitrate=N/A    frame= 4346 fps= 15 q=-1.0 size=N/A time=00:04:49.60 bitrate=N/A    frame= 4353 fps= 15 q=-1.0 size=N/A time=00:04:50.06 bitrate=N/A    frame= 4362 fps= 15 q=-1.0 size=N/A time=00:04:50.66 bitrate=N/A    frame= 4371 fps= 15 q=-1.0 size=N/A time=00:04:51.26 bitrate=N/A    frame= 4379 fps= 15 q=-1.0 size=N/A time=00:04:51.80 bitrate=N/A    frame= 4387 fps= 15 q=-1.0 size=N/A time=00:04:52.33 bitrate=N/A    frame= 4394 fps= 15 q=-1.0 size=N/A time=00:04:52.80 bitrate=N/A    frame= 4402 fps= 15 q=-1.0 size=N/A time=00:04:53.33 bitrate=N/A    frame= 4410 fps= 15 q=-1.0 size=N/A time=00:04:53.86 bitrate=N/A    frame= 4420 fps= 15 q=-1.0 size=N/A time=00:04:54.53 bitrate=N/A    frame= 4429 fps= 15 q=-1.0 size=N/A time=00:04:55.13 bitrate=N/A    frame= 4436 fps= 15 q=-1.0 size=N/A time=00:04:55.60 bitrate=N/A    frame= 4444 fps= 15 q=-1.0 size=N/A time=00:04:56.13 bitrate=N/A    frame= 4452 fps= 15 q=-1.0 size=N/A time=00:04:56.66 bitrate=N/A    frame= 4461 fps= 15 q=-1.0 size=N/A time=00:04:57.26 bitrate=N/A    frame= 4468 fps= 15 q=-1.0 size=N/A time=00:04:57.73 bitrate=N/A    frame= 4477 fps= 15 q=-1.0 size=N/A time=00:04:58.33 bitrate=N/A    frame= 4484 fps= 15 q=-1.0 size=N/A time=00:04:58.80 bitrate=N/A    frame= 4493 fps= 15 q=-1.0 size=N/A time=00:04:59.40 bitrate=N/A    frame= 4500 fps= 15 q=-1.0 size=N/A time=00:04:59.86 bitrate=N/A    frame= 4508 fps= 15 q=-1.0 size=N/A time=00:05:00.40 bitrate=N/A    frame= 4517 fps= 15 q=-1.0 size=N/A time=00:05:01.00 bitrate=N/A    frame= 4525 fps= 15 q=-1.0 size=N/A time=00:05:01.53 bitrate=N/A    frame= 4532 fps= 15 q=-1.0 size=N/A time=00:05:02.00 bitrate=N/A    frame= 4541 fps= 15 q=-1.0 size=N/A time=00:05:02.60 bitrate=N/A    frame= 4548 fps= 15 q=-1.0 size=N/A time=00:05:03.06 bitrate=N/A    frame= 4557 fps= 15 q=-1.0 size=N/A time=00:05:03.66 bitrate=N/A    frame= 4566 fps= 15 q=-1.0 size=N/A time=00:05:04.26 bitrate=N/A    frame= 4574 fps= 15 q=-1.0 size=N/A time=00:05:04.80 bitrate=N/A    frame= 4581 fps= 15 q=-1.0 size=N/A time=00:05:05.26 bitrate=N/A    frame= 4589 fps= 15 q=-1.0 size=N/A time=00:05:05.80 bitrate=N/A    frame= 4597 fps= 15 q=-1.0 size=N/A time=00:05:06.33 bitrate=N/A    frame= 4605 fps= 15 q=-1.0 size=N/A time=00:05:06.86 bitrate=N/A    frame= 4614 fps= 15 q=-1.0 size=N/A time=00:05:07.46 bitrate=N/A    frame= 4622 fps= 15 q=-1.0 size=N/A time=00:05:08.00 bitrate=N/A    frame= 4629 fps= 15 q=-1.0 size=N/A time=00:05:08.46 bitrate=N/A    frame= 4637 fps= 15 q=-1.0 size=N/A time=00:05:09.00 bitrate=N/A    frame= 4645 fps= 15 q=-1.0 size=N/A time=00:05:09.53 bitrate=N/A    frame= 4654 fps= 15 q=-1.0 size=N/A time=00:05:10.13 bitrate=N/A    frame= 4661 fps= 15 q=-1.0 size=N/A time=00:05:10.60 bitrate=N/A    frame= 4669 fps= 15 q=-1.0 size=N/A time=00:05:11.13 bitrate=N/A    frame= 4677 fps= 15 q=-1.0 size=N/A time=00:05:11.66 bitrate=N/A    frame= 4685 fps= 15 q=-1.0 size=N/A time=00:05:12.20 bitrate=N/A    frame= 4693 fps= 15 q=-1.0 size=N/A time=00:05:12.73 bitrate=N/A    frame= 4701 fps= 15 q=-1.0 size=N/A time=00:05:13.26 bitrate=N/A    frame= 4710 fps= 15 q=-1.0 size=N/A time=00:05:13.86 bitrate=N/A    frame= 4717 fps= 15 q=-1.0 size=N/A time=00:05:14.33 bitrate=N/A    frame= 4726 fps= 15 q=-1.0 size=N/A time=00:05:14.93 bitrate=N/A    frame= 4734 fps= 15 q=-1.0 size=N/A time=00:05:15.46 bitrate=N/A    frame= 4742 fps= 15 q=-1.0 size=N/A time=00:05:16.00 bitrate=N/A    frame= 4749 fps= 15 q=-1.0 size=N/A time=00:05:16.46 bitrate=N/A    frame= 4758 fps= 15 q=-1.0 size=N/A time=00:05:17.06 bitrate=N/A    frame= 4765 fps= 15 q=-1.0 size=N/A time=00:05:17.53 bitrate=N/A    frame= 4775 fps= 15 q=-1.0 size=N/A time=00:05:18.20 bitrate=N/A    frame= 4782 fps= 15 q=-1.0 size=N/A time=00:05:18.66 bitrate=N/A    frame= 4790 fps= 15 q=-1.0 size=N/A time=00:05:19.20 bitrate=N/A    frame= 4798 fps= 15 q=-1.0 size=N/A time=00:05:19.73 bitrate=N/A    frame= 4806 fps= 15 q=-1.0 size=N/A time=00:05:20.26 bitrate=N/A    frame= 4815 fps= 15 q=-1.0 size=N/A time=00:05:20.86 bitrate=N/A    frame= 4823 fps= 15 q=-1.0 size=N/A time=00:05:21.40 bitrate=N/A    frame= 4830 fps= 15 q=-1.0 size=N/A time=00:05:21.86 bitrate=N/A    frame= 4839 fps= 15 q=-1.0 size=N/A time=00:05:22.46 bitrate=N/A    frame= 4846 fps= 15 q=-1.0 size=N/A time=00:05:22.93 bitrate=N/A    frame= 4855 fps= 15 q=-1.0 size=N/A time=00:05:23.53 bitrate=N/A    frame= 4863 fps= 15 q=-1.0 size=N/A time=00:05:24.06 bitrate=N/A    frame= 4871 fps= 15 q=-1.0 size=N/A time=00:05:24.60 bitrate=N/A    frame= 4878 fps= 15 q=-1.0 size=N/A time=00:05:25.06 bitrate=N/A    frame= 4887 fps= 15 q=-1.0 size=N/A time=00:05:25.66 bitrate=N/A    frame= 4895 fps= 15 q=-1.0 size=N/A time=00:05:26.20 bitrate=N/A    frame= 4903 fps= 15 q=-1.0 size=N/A time=00:05:26.73 bitrate=N/A    frame= 4912 fps= 15 q=-1.0 size=N/A time=00:05:27.33 bitrate=N/A    frame= 4920 fps= 15 q=-1.0 size=N/A time=00:05:27.86 bitrate=N/A    frame= 4928 fps= 15 q=-1.0 size=N/A time=00:05:28.40 bitrate=N/A    frame= 4936 fps= 15 q=-1.0 size=N/A time=00:05:28.93 bitrate=N/A    frame= 4945 fps= 15 q=-1.0 size=N/A time=00:05:29.53 bitrate=N/A    frame= 4953 fps= 15 q=-1.0 size=N/A time=00:05:30.06 bitrate=N/A    frame= 4961 fps= 15 q=-1.0 size=N/A time=00:05:30.60 bitrate=N/A    frame= 4969 fps= 15 q=-1.0 size=N/A time=00:05:31.13 bitrate=N/A    frame= 4978 fps= 15 q=-1.0 size=N/A time=00:05:31.73 bitrate=N/A    frame= 4987 fps= 15 q=-1.0 size=N/A time=00:05:32.33 bitrate=N/A    frame= 4995 fps= 15 q=-1.0 size=N/A time=00:05:32.86 bitrate=N/A    frame= 5003 fps= 15 q=-1.0 size=N/A time=00:05:33.40 bitrate=N/A    frame= 5011 fps= 15 q=-1.0 size=N/A time=00:05:33.93 bitrate=N/A    frame= 5019 fps= 15 q=-1.0 size=N/A time=00:05:34.46 bitrate=N/A    frame= 5026 fps= 15 q=-1.0 size=N/A time=00:05:34.93 bitrate=N/A    frame= 5035 fps= 15 q=-1.0 size=N/A time=00:05:35.53 bitrate=N/A    frame= 5043 fps= 15 q=-1.0 size=N/A time=00:05:36.06 bitrate=N/A    frame= 5051 fps= 15 q=-1.0 size=N/A time=00:05:36.60 bitrate=N/A    frame= 5059 fps= 15 q=-1.0 size=N/A time=00:05:37.13 bitrate=N/A    frame= 5067 fps= 15 q=-1.0 size=N/A time=00:05:37.66 bitrate=N/A    frame= 5075 fps= 15 q=-1.0 size=N/A time=00:05:38.20 bitrate=N/A    frame= 5084 fps= 15 q=-1.0 size=N/A time=00:05:38.80 bitrate=N/A    frame= 5092 fps= 15 q=-1.0 size=N/A time=00:05:39.33 bitrate=N/A    frame= 5099 fps= 15 q=-1.0 size=N/A time=00:05:39.80 bitrate=N/A    frame= 5107 fps= 15 q=-1.0 size=N/A time=00:05:40.33 bitrate=N/A    frame= 5115 fps= 15 q=-1.0 size=N/A time=00:05:40.86 bitrate=N/A    frame= 5123 fps= 15 q=-1.0 size=N/A time=00:05:41.40 bitrate=N/A    frame= 5131 fps= 15 q=-1.0 size=N/A time=00:05:41.93 bitrate=N/A    frame= 5140 fps= 15 q=-1.0 size=N/A time=00:05:42.53 bitrate=N/A    frame= 5147 fps= 15 q=-1.0 size=N/A time=00:05:43.00 bitrate=N/A    frame= 5155 fps= 15 q=-1.0 size=N/A time=00:05:43.53 bitrate=N/A    frame= 5163 fps= 15 q=-1.0 size=N/A time=00:05:44.06 bitrate=N/A    frame= 5171 fps= 15 q=-1.0 size=N/A time=00:05:44.60 bitrate=N/A    frame= 5179 fps= 15 q=-1.0 size=N/A time=00:05:45.13 bitrate=N/A    frame= 5188 fps= 15 q=-1.0 size=N/A time=00:05:45.73 bitrate=N/A    frame= 5195 fps= 15 q=-1.0 size=N/A time=00:05:46.20 bitrate=N/A    frame= 5203 fps= 15 q=-1.0 size=N/A time=00:05:46.73 bitrate=N/A    frame= 5211 fps= 15 q=-1.0 size=N/A time=00:05:47.26 bitrate=N/A    frame= 5220 fps= 15 q=-1.0 size=N/A time=00:05:47.86 bitrate=N/A    frame= 5229 fps= 15 q=-1.0 size=N/A time=00:05:48.46 bitrate=N/A    frame= 5238 fps= 15 q=-1.0 size=N/A time=00:05:49.06 bitrate=N/A    frame= 5246 fps= 15 q=-1.0 size=N/A time=00:05:49.60 bitrate=N/A    frame= 5255 fps= 15 q=-1.0 size=N/A time=00:05:50.20 bitrate=N/A    frame= 5262 fps= 15 q=-1.0 size=N/A time=00:05:50.66 bitrate=N/A    frame= 5270 fps= 15 q=-1.0 size=N/A time=00:05:51.20 bitrate=N/A    frame= 5278 fps= 15 q=-1.0 size=N/A time=00:05:51.73 bitrate=N/A    frame= 5286 fps= 15 q=-1.0 size=N/A time=00:05:52.26 bitrate=N/A    frame= 5294 fps= 15 q=-1.0 size=N/A time=00:05:52.80 bitrate=N/A    frame= 5303 fps= 15 q=-1.0 size=N/A time=00:05:53.40 bitrate=N/A    frame= 5311 fps= 15 q=-1.0 size=N/A time=00:05:53.93 bitrate=N/A    frame= 5319 fps= 15 q=-1.0 size=N/A time=00:05:54.46 bitrate=N/A    frame= 5328 fps= 15 q=-1.0 size=N/A time=00:05:55.06 bitrate=N/A    frame= 5336 fps= 15 q=-1.0 size=N/A time=00:05:55.60 bitrate=N/A    frame= 5343 fps= 15 q=-1.0 size=N/A time=00:05:56.06 bitrate=N/A    frame= 5352 fps= 15 q=-1.0 size=N/A time=00:05:56.66 bitrate=N/A    frame= 5361 fps= 15 q=-1.0 size=N/A time=00:05:57.26 bitrate=N/A    frame= 5368 fps= 15 q=-1.0 size=N/A time=00:05:57.73 bitrate=N/A    frame= 5376 fps= 15 q=-1.0 size=N/A time=00:05:58.26 bitrate=N/A    frame= 5384 fps= 15 q=-1.0 size=N/A time=00:05:58.80 bitrate=N/A    frame= 5392 fps= 15 q=-1.0 size=N/A time=00:05:59.33 bitrate=N/A    frame= 5401 fps= 15 q=-1.0 size=N/A time=00:05:59.93 bitrate=N/A    frame= 5408 fps= 15 q=-1.0 size=N/A time=00:06:00.40 bitrate=N/A    frame= 5416 fps= 15 q=-1.0 size=N/A time=00:06:00.93 bitrate=N/A    frame= 5426 fps= 15 q=-1.0 size=N/A time=00:06:01.60 bitrate=N/A    frame= 5433 fps= 15 q=-1.0 size=N/A time=00:06:02.06 bitrate=N/A    frame= 5441 fps= 15 q=-1.0 size=N/A time=00:06:02.60 bitrate=N/A    frame= 5449 fps= 15 q=-1.0 size=N/A time=00:06:03.13 bitrate=N/A    frame= 5459 fps= 15 q=-1.0 size=N/A time=00:06:03.80 bitrate=N/A    frame= 5466 fps= 15 q=-1.0 size=N/A time=00:06:04.26 bitrate=N/A    frame= 5474 fps= 15 q=-1.0 size=N/A time=00:06:04.80 bitrate=N/A    frame= 5483 fps= 15 q=-1.0 size=N/A time=00:06:05.40 bitrate=N/A    frame= 5491 fps= 15 q=-1.0 size=N/A time=00:06:05.93 bitrate=N/A    frame= 5500 fps= 15 q=-1.0 size=N/A time=00:06:06.53 bitrate=N/A    frame= 5508 fps= 15 q=-1.0 size=N/A time=00:06:07.06 bitrate=N/A    frame= 5516 fps= 15 q=-1.0 size=N/A time=00:06:07.60 bitrate=N/A    frame= 5524 fps= 15 q=-1.0 size=N/A time=00:06:08.13 bitrate=N/A    frame= 5534 fps= 15 q=-1.0 size=N/A time=00:06:08.80 bitrate=N/A    frame= 5541 fps= 15 q=-1.0 size=N/A time=00:06:09.26 bitrate=N/A    frame= 5549 fps= 15 q=-1.0 size=N/A time=00:06:09.80 bitrate=N/A    frame= 5558 fps= 15 q=-1.0 size=N/A time=00:06:10.40 bitrate=N/A    frame= 5566 fps= 15 q=-1.0 size=N/A time=00:06:10.93 bitrate=N/A    frame= 5575 fps= 15 q=-1.0 size=N/A time=00:06:11.53 bitrate=N/A    frame= 5583 fps= 15 q=-1.0 size=N/A time=00:06:12.06 bitrate=N/A    frame= 5591 fps= 15 q=-1.0 size=N/A time=00:06:12.60 bitrate=N/A    frame= 5599 fps= 15 q=-1.0 size=N/A time=00:06:13.13 bitrate=N/A    frame= 5607 fps= 15 q=-1.0 size=N/A time=00:06:13.66 bitrate=N/A    frame= 5615 fps= 15 q=-1.0 size=N/A time=00:06:14.20 bitrate=N/A    frame= 5623 fps= 15 q=-1.0 size=N/A time=00:06:14.73 bitrate=N/A    frame= 5631 fps= 15 q=-1.0 size=N/A time=00:06:15.26 bitrate=N/A    frame= 5639 fps= 15 q=-1.0 size=N/A time=00:06:15.80 bitrate=N/A    frame= 5647 fps= 15 q=-1.0 size=N/A time=00:06:16.33 bitrate=N/A    frame= 5656 fps= 15 q=-1.0 size=N/A time=00:06:16.93 bitrate=N/A    frame= 5664 fps= 15 q=-1.0 size=N/A time=00:06:17.46 bitrate=N/A    frame= 5673 fps= 15 q=-1.0 size=N/A time=00:06:18.06 bitrate=N/A    frame= 5681 fps= 15 q=-1.0 size=N/A time=00:06:18.60 bitrate=N/A    frame= 5689 fps= 15 q=-1.0 size=N/A time=00:06:19.13 bitrate=N/A    frame= 5698 fps= 15 q=-1.0 size=N/A time=00:06:19.73 bitrate=N/A    frame= 5706 fps= 15 q=-1.0 size=N/A time=00:06:20.26 bitrate=N/A    frame= 5714 fps= 15 q=-1.0 size=N/A time=00:06:20.80 bitrate=N/A    frame= 5722 fps= 15 q=-1.0 size=N/A time=00:06:21.33 bitrate=N/A    frame= 5730 fps= 15 q=-1.0 size=N/A time=00:06:21.86 bitrate=N/A    frame= 5738 fps= 15 q=-1.0 size=N/A time=00:06:22.40 bitrate=N/A    frame= 5746 fps= 15 q=-1.0 size=N/A time=00:06:22.93 bitrate=N/A    frame= 5754 fps= 15 q=-1.0 size=N/A time=00:06:23.46 bitrate=N/A    frame= 5762 fps= 15 q=-1.0 size=N/A time=00:06:24.00 bitrate=N/A    frame= 5770 fps= 15 q=-1.0 size=N/A time=00:06:24.53 bitrate=N/A    frame= 5778 fps= 15 q=-1.0 size=N/A time=00:06:25.06 bitrate=N/A    frame= 5786 fps= 15 q=-1.0 size=N/A time=00:06:25.60 bitrate=N/A    frame= 5795 fps= 15 q=-1.0 size=N/A time=00:06:26.20 bitrate=N/A    frame= 5802 fps= 15 q=-1.0 size=N/A time=00:06:26.66 bitrate=N/A    frame= 5810 fps= 15 q=-1.0 size=N/A time=00:06:27.20 bitrate=N/A    frame= 5818 fps= 15 q=-1.0 size=N/A time=00:06:27.73 bitrate=N/A    frame= 5826 fps= 15 q=-1.0 size=N/A time=00:06:28.26 bitrate=N/A    frame= 5835 fps= 15 q=-1.0 size=N/A time=00:06:28.86 bitrate=N/A    frame= 5842 fps= 15 q=-1.0 size=N/A time=00:06:29.33 bitrate=N/A    frame= 5850 fps= 15 q=-1.0 size=N/A time=00:06:29.86 bitrate=N/A    frame= 5858 fps= 15 q=-1.0 size=N/A time=00:06:30.40 bitrate=N/A    frame= 5866 fps= 15 q=-1.0 size=N/A time=00:06:30.93 bitrate=N/A    frame= 5874 fps= 15 q=-1.0 size=N/A time=00:06:31.46 bitrate=N/A    frame= 5883 fps= 15 q=-1.0 size=N/A time=00:06:32.06 bitrate=N/A    frame= 5891 fps= 15 q=-1.0 size=N/A time=00:06:32.60 bitrate=N/A    frame= 5899 fps= 15 q=-1.0 size=N/A time=00:06:33.13 bitrate=N/A    frame= 5908 fps= 15 q=-1.0 size=N/A time=00:06:33.73 bitrate=N/A    frame= 5915 fps= 15 q=-1.0 size=N/A time=00:06:34.20 bitrate=N/A    frame= 5923 fps= 15 q=-1.0 size=N/A time=00:06:34.73 bitrate=N/A    frame= 5932 fps= 15 q=-1.0 size=N/A time=00:06:35.33 bitrate=N/A    frame= 5939 fps= 15 q=-1.0 size=N/A time=00:06:35.80 bitrate=N/A    frame= 5947 fps= 15 q=-1.0 size=N/A time=00:06:36.33 bitrate=N/A    frame= 5956 fps= 15 q=-1.0 size=N/A time=00:06:36.93 bitrate=N/A    frame= 5966 fps= 15 q=-1.0 size=N/A time=00:06:37.60 bitrate=N/A    frame= 5973 fps= 15 q=-1.0 size=N/A time=00:06:38.06 bitrate=N/A    frame= 5981 fps= 15 q=-1.0 size=N/A time=00:06:38.60 bitrate=N/A    frame= 5990 fps= 15 q=-1.0 size=N/A time=00:06:39.20 bitrate=N/A    frame= 5998 fps= 15 q=-1.0 size=N/A time=00:06:39.73 bitrate=N/A    frame= 6006 fps= 15 q=-1.0 size=N/A time=00:06:40.26 bitrate=N/A    frame= 6014 fps= 15 q=-1.0 size=N/A time=00:06:40.80 bitrate=N/A    frame= 6023 fps= 15 q=-1.0 size=N/A time=00:06:41.40 bitrate=N/A    frame= 6030 fps= 15 q=-1.0 size=N/A time=00:06:41.86 bitrate=N/A    frame= 6038 fps= 15 q=-1.0 size=N/A time=00:06:42.40 bitrate=N/A    frame= 6046 fps= 15 q=-1.0 size=N/A time=00:06:42.93 bitrate=N/A    frame= 6054 fps= 15 q=-1.0 size=N/A time=00:06:43.46 bitrate=N/A    frame= 6063 fps= 15 q=-1.0 size=N/A time=00:06:44.06 bitrate=N/A    frame= 6071 fps= 15 q=-1.0 size=N/A time=00:06:44.60 bitrate=N/A    frame= 6078 fps= 15 q=-1.0 size=N/A time=00:06:45.06 bitrate=N/A    frame= 6087 fps= 15 q=-1.0 size=N/A time=00:06:45.66 bitrate=N/A    frame= 6094 fps= 15 q=-1.0 size=N/A time=00:06:46.13 bitrate=N/A    frame= 6102 fps= 15 q=-1.0 size=N/A time=00:06:46.66 bitrate=N/A    frame= 6110 fps= 15 q=-1.0 size=N/A time=00:06:47.20 bitrate=N/A    frame= 6119 fps= 15 q=-1.0 size=N/A time=00:06:47.80 bitrate=N/A    frame= 6125 fps= 15 q=-1.0 size=N/A time=00:06:48.20 bitrate=N/A    frame= 6134 fps= 15 q=-1.0 size=N/A time=00:06:48.80 bitrate=N/A    frame= 6142 fps= 15 q=-1.0 size=N/A time=00:06:49.33 bitrate=N/A    frame= 6150 fps= 15 q=-1.0 size=N/A time=00:06:49.86 bitrate=N/A    frame= 6159 fps= 15 q=-1.0 size=N/A time=00:06:50.46 bitrate=N/A    frame= 6167 fps= 15 q=-1.0 size=N/A time=00:06:51.00 bitrate=N/A    frame= 6175 fps= 15 q=-1.0 size=N/A time=00:06:51.53 bitrate=N/A    frame= 6184 fps= 15 q=-1.0 size=N/A time=00:06:52.13 bitrate=N/A    frame= 6192 fps= 15 q=-1.0 size=N/A time=00:06:52.66 bitrate=N/A    frame= 6200 fps= 15 q=-1.0 size=N/A time=00:06:53.20 bitrate=N/A    frame= 6207 fps= 15 q=-1.0 size=N/A time=00:06:53.66 bitrate=N/A    frame= 6216 fps= 15 q=-1.0 size=N/A time=00:06:54.26 bitrate=N/A    frame= 6225 fps= 15 q=-1.0 size=N/A time=00:06:54.86 bitrate=N/A    frame= 6232 fps= 15 q=-1.0 size=N/A time=00:06:55.33 bitrate=N/A    frame= 6240 fps= 15 q=-1.0 size=N/A time=00:06:55.86 bitrate=N/A    frame= 6249 fps= 15 q=-1.0 size=N/A time=00:06:56.46 bitrate=N/A    frame= 6256 fps= 15 q=-1.0 size=N/A time=00:06:56.93 bitrate=N/A    frame= 6264 fps= 15 q=-1.0 size=N/A time=00:06:57.46 bitrate=N/A    frame= 6273 fps= 15 q=-1.0 size=N/A time=00:06:58.06 bitrate=N/A    frame= 6280 fps= 15 q=-1.0 size=N/A time=00:06:58.53 bitrate=N/A    frame= 6288 fps= 15 q=-1.0 size=N/A time=00:06:59.06 bitrate=N/A    frame= 6297 fps= 15 q=-1.0 size=N/A time=00:06:59.66 bitrate=N/A    frame= 6304 fps= 15 q=-1.0 size=N/A time=00:07:00.13 bitrate=N/A    frame= 6314 fps= 15 q=-1.0 size=N/A time=00:07:00.80 bitrate=N/A    frame= 6322 fps= 15 q=-1.0 size=N/A time=00:07:01.33 bitrate=N/A    frame= 6331 fps= 15 q=-1.0 size=N/A time=00:07:01.93 bitrate=N/A    frame= 6339 fps= 15 q=-1.0 size=N/A time=00:07:02.46 bitrate=N/A    frame= 6346 fps= 15 q=-1.0 size=N/A time=00:07:02.93 bitrate=N/A    frame= 6354 fps= 15 q=-1.0 size=N/A time=00:07:03.46 bitrate=N/A    frame= 6362 fps= 15 q=-1.0 size=N/A time=00:07:04.00 bitrate=N/A    frame= 6370 fps= 15 q=-1.0 size=N/A time=00:07:04.53 bitrate=N/A    frame= 6379 fps= 15 q=-1.0 size=N/A time=00:07:05.13 bitrate=N/A    frame= 6386 fps= 15 q=-1.0 size=N/A time=00:07:05.60 bitrate=N/A    frame= 6394 fps= 15 q=-1.0 size=N/A time=00:07:06.13 bitrate=N/A    frame= 6402 fps= 15 q=-1.0 size=N/A time=00:07:06.66 bitrate=N/A    frame= 6411 fps= 15 q=-1.0 size=N/A time=00:07:07.26 bitrate=N/A    frame= 6420 fps= 15 q=-1.0 size=N/A time=00:07:07.86 bitrate=N/A    frame= 6429 fps= 15 q=-1.0 size=N/A time=00:07:08.46 bitrate=N/A    frame= 6437 fps= 15 q=-1.0 size=N/A time=00:07:09.00 bitrate=N/A    frame= 6444 fps= 15 q=-1.0 size=N/A time=00:07:09.46 bitrate=N/A    frame= 6452 fps= 15 q=-1.0 size=N/A time=00:07:10.00 bitrate=N/A    frame= 6461 fps= 15 q=-1.0 size=N/A time=00:07:10.60 bitrate=N/A    frame= 6469 fps= 15 q=-1.0 size=N/A time=00:07:11.13 bitrate=N/A    frame= 6477 fps= 15 q=-1.0 size=N/A time=00:07:11.66 bitrate=N/A    frame= 6485 fps= 15 q=-1.0 size=N/A time=00:07:12.20 bitrate=N/A    frame= 6492 fps= 15 q=-1.0 size=N/A time=00:07:12.66 bitrate=N/A    frame= 6501 fps= 15 q=-1.0 size=N/A time=00:07:13.26 bitrate=N/A    frame= 6509 fps= 15 q=-1.0 size=N/A time=00:07:13.80 bitrate=N/A    frame= 6517 fps= 15 q=-1.0 size=N/A time=00:07:14.33 bitrate=N/A    frame= 6527 fps= 15 q=-1.0 size=N/A time=00:07:15.00 bitrate=N/A    frame= 6535 fps= 15 q=-1.0 size=N/A time=00:07:15.53 bitrate=N/A    frame= 6543 fps= 15 q=-1.0 size=N/A time=00:07:16.06 bitrate=N/A    frame= 6552 fps= 15 q=-1.0 size=N/A time=00:07:16.66 bitrate=N/A    frame= 6559 fps= 15 q=-1.0 size=N/A time=00:07:17.13 bitrate=N/A    frame= 6567 fps= 15 q=-1.0 size=N/A time=00:07:17.66 bitrate=N/A    frame= 6575 fps= 15 q=-1.0 size=N/A time=00:07:18.20 bitrate=N/A    frame= 6583 fps= 15 q=-1.0 size=N/A time=00:07:18.73 bitrate=N/A    frame= 6591 fps= 15 q=-1.0 size=N/A time=00:07:19.26 bitrate=N/A    frame= 6599 fps= 15 q=-1.0 size=N/A time=00:07:19.80 bitrate=N/A    frame= 6607 fps= 15 q=-1.0 size=N/A time=00:07:20.33 bitrate=N/A    frame= 6615 fps= 15 q=-1.0 size=N/A time=00:07:20.86 bitrate=N/A    frame= 6624 fps= 15 q=-1.0 size=N/A time=00:07:21.46 bitrate=N/A    frame= 6632 fps= 15 q=-1.0 size=N/A time=00:07:22.00 bitrate=N/A    frame= 6640 fps= 15 q=-1.0 size=N/A time=00:07:22.53 bitrate=N/A    frame= 6648 fps= 15 q=-1.0 size=N/A time=00:07:23.06 bitrate=N/A    frame= 6657 fps= 15 q=-1.0 size=N/A time=00:07:23.66 bitrate=N/A    frame= 6665 fps= 15 q=-1.0 size=N/A time=00:07:24.20 bitrate=N/A    frame= 6672 fps= 15 q=-1.0 size=N/A time=00:07:24.66 bitrate=N/A    frame= 6681 fps= 15 q=-1.0 size=N/A time=00:07:25.26 bitrate=N/A    frame= 6688 fps= 15 q=-1.0 size=N/A time=00:07:25.73 bitrate=N/A    frame= 6696 fps= 15 q=-1.0 size=N/A time=00:07:26.26 bitrate=N/A    frame= 6703 fps= 15 q=-1.0 size=N/A time=00:07:26.73 bitrate=N/A    frame= 6713 fps= 15 q=-1.0 size=N/A time=00:07:27.40 bitrate=N/A    frame= 6720 fps= 15 q=-1.0 size=N/A time=00:07:27.86 bitrate=N/A    frame= 6729 fps= 15 q=-1.0 size=N/A time=00:07:28.46 bitrate=N/A    frame= 6736 fps= 15 q=-1.0 size=N/A time=00:07:28.93 bitrate=N/A    frame= 6744 fps= 15 q=-1.0 size=N/A time=00:07:29.46 bitrate=N/A    frame= 6753 fps= 15 q=-1.0 size=N/A time=00:07:30.06 bitrate=N/A    frame= 6761 fps= 15 q=-1.0 size=N/A time=00:07:30.60 bitrate=N/A    frame= 6768 fps= 15 q=-1.0 size=N/A time=00:07:31.06 bitrate=N/A    frame= 6776 fps= 15 q=-1.0 size=N/A time=00:07:31.60 bitrate=N/A    frame= 6784 fps= 15 q=-1.0 size=N/A time=00:07:32.13 bitrate=N/A    frame= 6792 fps= 15 q=-1.0 size=N/A time=00:07:32.66 bitrate=N/A    frame= 6801 fps= 15 q=-1.0 size=N/A time=00:07:33.26 bitrate=N/A    frame= 6809 fps= 15 q=-1.0 size=N/A time=00:07:33.80 bitrate=N/A    frame= 6817 fps= 15 q=-1.0 size=N/A time=00:07:34.33 bitrate=N/A    frame= 6826 fps= 15 q=-1.0 size=N/A time=00:07:34.93 bitrate=N/A    frame= 6834 fps= 15 q=-1.0 size=N/A time=00:07:35.46 bitrate=N/A    frame= 6842 fps= 15 q=-1.0 size=N/A time=00:07:36.00 bitrate=N/A    frame= 6849 fps= 15 q=-1.0 size=N/A time=00:07:36.46 bitrate=N/A    frame= 6858 fps= 15 q=-1.0 size=N/A time=00:07:37.06 bitrate=N/A    frame= 6865 fps= 15 q=-1.0 size=N/A time=00:07:37.53 bitrate=N/A    frame= 6873 fps= 15 q=-1.0 size=N/A time=00:07:38.06 bitrate=N/A    frame= 6882 fps= 15 q=-1.0 size=N/A time=00:07:38.66 bitrate=N/A    frame= 6890 fps= 15 q=-1.0 size=N/A time=00:07:39.20 bitrate=N/A    frame= 6897 fps= 15 q=-1.0 size=N/A time=00:07:39.66 bitrate=N/A    frame= 6905 fps= 15 q=-1.0 size=N/A time=00:07:40.20 bitrate=N/A    frame= 6913 fps= 15 q=-1.0 size=N/A time=00:07:40.73 bitrate=N/A    frame= 6922 fps= 15 q=-1.0 size=N/A time=00:07:41.33 bitrate=N/A    frame= 6930 fps= 15 q=-1.0 size=N/A time=00:07:41.86 bitrate=N/A    frame= 6938 fps= 15 q=-1.0 size=N/A time=00:07:42.40 bitrate=N/A    frame= 6945 fps= 15 q=-1.0 size=N/A time=00:07:42.86 bitrate=N/A    frame= 6953 fps= 15 q=-1.0 size=N/A time=00:07:43.40 bitrate=N/A    frame= 6961 fps= 15 q=-1.0 size=N/A time=00:07:43.93 bitrate=N/A    frame= 6970 fps= 15 q=-1.0 size=N/A time=00:07:44.53 bitrate=N/A    frame= 6978 fps= 15 q=-1.0 size=N/A time=00:07:45.06 bitrate=N/A    frame= 6986 fps= 15 q=-1.0 size=N/A time=00:07:45.60 bitrate=N/A    frame= 6993 fps= 15 q=-1.0 size=N/A time=00:07:46.06 bitrate=N/A    frame= 7001 fps= 15 q=-1.0 size=N/A time=00:07:46.60 bitrate=N/A    frame= 7009 fps= 15 q=-1.0 size=N/A time=00:07:47.13 bitrate=N/A    frame= 7018 fps= 15 q=-1.0 size=N/A time=00:07:47.73 bitrate=N/A    frame= 7026 fps= 15 q=-1.0 size=N/A time=00:07:48.26 bitrate=N/A    frame= 7035 fps= 15 q=-1.0 size=N/A time=00:07:48.86 bitrate=N/A    frame= 7043 fps= 15 q=-1.0 size=N/A time=00:07:49.40 bitrate=N/A    frame= 7051 fps= 15 q=-1.0 size=N/A time=00:07:49.93 bitrate=N/A    frame= 7061 fps= 15 q=-1.0 size=N/A time=00:07:50.60 bitrate=N/A    frame= 7068 fps= 15 q=-1.0 size=N/A time=00:07:51.06 bitrate=N/A    frame= 7076 fps= 15 q=-1.0 size=N/A time=00:07:51.60 bitrate=N/A    frame= 7084 fps= 15 q=-1.0 size=N/A time=00:07:52.13 bitrate=N/A    frame= 7092 fps= 15 q=-1.0 size=N/A time=00:07:52.66 bitrate=N/A    frame= 7101 fps= 15 q=-1.0 size=N/A time=00:07:53.26 bitrate=N/A    frame= 7109 fps= 15 q=-1.0 size=N/A time=00:07:53.80 bitrate=N/A    frame= 7116 fps= 15 q=-1.0 size=N/A time=00:07:54.26 bitrate=N/A    frame= 7124 fps= 15 q=-1.0 size=N/A time=00:07:54.80 bitrate=N/A    frame= 7132 fps= 15 q=-1.0 size=N/A time=00:07:55.33 bitrate=N/A    frame= 7140 fps= 15 q=-1.0 size=N/A time=00:07:55.86 bitrate=N/A    frame= 7149 fps= 15 q=-1.0 size=N/A time=00:07:56.46 bitrate=N/A    frame= 7157 fps= 15 q=-1.0 size=N/A time=00:07:57.00 bitrate=N/A    frame= 7165 fps= 15 q=-1.0 size=N/A time=00:07:57.53 bitrate=N/A    frame= 7173 fps= 15 q=-1.0 size=N/A time=00:07:58.06 bitrate=N/A    frame= 7180 fps= 15 q=-1.0 size=N/A time=00:07:58.53 bitrate=N/A    frame= 7188 fps= 15 q=-1.0 size=N/A time=00:07:59.06 bitrate=N/A    frame= 7197 fps= 15 q=-1.0 size=N/A time=00:07:59.66 bitrate=N/A    frame= 7205 fps= 15 q=-1.0 size=N/A time=00:08:00.20 bitrate=N/A    frame= 7213 fps= 15 q=-1.0 size=N/A time=00:08:00.73 bitrate=N/A    frame= 7222 fps= 15 q=-1.0 size=N/A time=00:08:01.33 bitrate=N/A    frame= 7229 fps= 15 q=-1.0 size=N/A time=00:08:01.80 bitrate=N/A    frame= 7237 fps= 15 q=-1.0 size=N/A time=00:08:02.33 bitrate=N/A    frame= 7245 fps= 15 q=-1.0 size=N/A time=00:08:02.86 bitrate=N/A    frame= 7253 fps= 15 q=-1.0 size=N/A time=00:08:03.40 bitrate=N/A    frame= 7261 fps= 15 q=-1.0 size=N/A time=00:08:03.93 bitrate=N/A    frame= 7270 fps= 15 q=-1.0 size=N/A time=00:08:04.53 bitrate=N/A    frame= 7279 fps= 15 q=-1.0 size=N/A time=00:08:05.13 bitrate=N/A    frame= 7287 fps= 15 q=-1.0 size=N/A time=00:08:05.66 bitrate=N/A    frame= 7296 fps= 15 q=-1.0 size=N/A time=00:08:06.26 bitrate=N/A    frame= 7304 fps= 15 q=-1.0 size=N/A time=00:08:06.80 bitrate=N/A    frame= 7312 fps= 15 q=-1.0 size=N/A time=00:08:07.33 bitrate=N/A    frame= 7320 fps= 15 q=-1.0 size=N/A time=00:08:07.86 bitrate=N/A    frame= 7329 fps= 15 q=-1.0 size=N/A time=00:08:08.46 bitrate=N/A    frame= 7337 fps= 15 q=-1.0 size=N/A time=00:08:09.00 bitrate=N/A    frame= 7345 fps= 15 q=-1.0 size=N/A time=00:08:09.53 bitrate=N/A    frame= 7353 fps= 15 q=-1.0 size=N/A time=00:08:10.06 bitrate=N/A    frame= 7361 fps= 15 q=-1.0 size=N/A time=00:08:10.60 bitrate=N/A    frame= 7370 fps= 15 q=-1.0 size=N/A time=00:08:11.20 bitrate=N/A    frame= 7377 fps= 15 q=-1.0 size=N/A time=00:08:11.66 bitrate=N/A    frame= 7385 fps= 15 q=-1.0 size=N/A time=00:08:12.20 bitrate=N/A    frame= 7393 fps= 15 q=-1.0 size=N/A time=00:08:12.73 bitrate=N/A    frame= 7401 fps= 15 q=-1.0 size=N/A time=00:08:13.26 bitrate=N/A    frame= 7410 fps= 15 q=-1.0 size=N/A time=00:08:13.86 bitrate=N/A    frame= 7419 fps= 15 q=-1.0 size=N/A time=00:08:14.46 bitrate=N/A    frame= 7426 fps= 15 q=-1.0 size=N/A time=00:08:14.93 bitrate=N/A    frame= 7435 fps= 15 q=-1.0 size=N/A time=00:08:15.53 bitrate=N/A    frame= 7443 fps= 15 q=-1.0 size=N/A time=00:08:16.06 bitrate=N/A    frame= 7452 fps= 15 q=-1.0 size=N/A time=00:08:16.66 bitrate=N/A    frame= 7461 fps= 15 q=-1.0 size=N/A time=00:08:17.26 bitrate=N/A    frame= 7468 fps= 15 q=-1.0 size=N/A time=00:08:17.73 bitrate=N/A    frame= 7476 fps= 15 q=-1.0 size=N/A time=00:08:18.26 bitrate=N/A    frame= 7485 fps= 15 q=-1.0 size=N/A time=00:08:18.86 bitrate=N/A    frame= 7493 fps= 15 q=-1.0 size=N/A time=00:08:19.40 bitrate=N/A    frame= 7501 fps= 15 q=-1.0 size=N/A time=00:08:19.93 bitrate=N/A    frame= 7509 fps= 15 q=-1.0 size=N/A time=00:08:20.46 bitrate=N/A    frame= 7517 fps= 15 q=-1.0 size=N/A time=00:08:21.00 bitrate=N/A    frame= 7525 fps= 15 q=-1.0 size=N/A time=00:08:21.53 bitrate=N/A    frame= 7534 fps= 15 q=-1.0 size=N/A time=00:08:22.13 bitrate=N/A    frame= 7543 fps= 15 q=-1.0 size=N/A time=00:08:22.73 bitrate=N/A    frame= 7551 fps= 15 q=-1.0 size=N/A time=00:08:23.26 bitrate=N/A    frame= 7560 fps= 15 q=-1.0 size=N/A time=00:08:23.86 bitrate=N/A    frame= 7570 fps= 15 q=-1.0 size=N/A time=00:08:24.53 bitrate=N/A    frame= 7577 fps= 15 q=-1.0 size=N/A time=00:08:25.00 bitrate=N/A    frame= 7585 fps= 15 q=-1.0 size=N/A time=00:08:25.53 bitrate=N/A    frame= 7593 fps= 15 q=-1.0 size=N/A time=00:08:26.06 bitrate=N/A    frame= 7602 fps= 15 q=-1.0 size=N/A time=00:08:26.66 bitrate=N/A    frame= 7611 fps= 15 q=-1.0 size=N/A time=00:08:27.26 bitrate=N/A    frame= 7618 fps= 15 q=-1.0 size=N/A time=00:08:27.73 bitrate=N/A    frame= 7628 fps= 15 q=-1.0 size=N/A time=00:08:28.40 bitrate=N/A    frame= 7635 fps= 15 q=-1.0 size=N/A time=00:08:28.86 bitrate=N/A    frame= 7644 fps= 15 q=-1.0 size=N/A time=00:08:29.46 bitrate=N/A    frame= 7653 fps= 15 q=-1.0 size=N/A time=00:08:30.06 bitrate=N/A    frame= 7660 fps= 15 q=-1.0 size=N/A time=00:08:30.53 bitrate=N/A    frame= 7670 fps= 15 q=-1.0 size=N/A time=00:08:31.20 bitrate=N/A    frame= 7677 fps= 15 q=-1.0 size=N/A time=00:08:31.66 bitrate=N/A    frame= 7685 fps= 15 q=-1.0 size=N/A time=00:08:32.20 bitrate=N/A    frame= 7693 fps= 15 q=-1.0 size=N/A time=00:08:32.73 bitrate=N/A    frame= 7702 fps= 15 q=-1.0 size=N/A time=00:08:33.33 bitrate=N/A    frame= 7710 fps= 15 q=-1.0 size=N/A time=00:08:33.86 bitrate=N/A    frame= 7718 fps= 15 q=-1.0 size=N/A time=00:08:34.40 bitrate=N/A    frame= 7726 fps= 15 q=-1.0 size=N/A time=00:08:34.93 bitrate=N/A    frame= 7735 fps= 15 q=-1.0 size=N/A time=00:08:35.53 bitrate=N/A    frame= 7742 fps= 15 q=-1.0 size=N/A time=00:08:36.00 bitrate=N/A    frame= 7750 fps= 15 q=-1.0 size=N/A time=00:08:36.53 bitrate=N/A    frame= 7758 fps= 15 q=-1.0 size=N/A time=00:08:37.06 bitrate=N/A    frame= 7767 fps= 15 q=-1.0 size=N/A time=00:08:37.66 bitrate=N/A    frame= 7775 fps= 15 q=-1.0 size=N/A time=00:08:38.20 bitrate=N/A    frame= 7783 fps= 15 q=-1.0 size=N/A time=00:08:38.73 bitrate=N/A    frame= 7791 fps= 15 q=-1.0 size=N/A time=00:08:39.26 bitrate=N/A    frame= 7800 fps= 15 q=-1.0 size=N/A time=00:08:39.86 bitrate=N/A    frame= 7807 fps= 15 q=-1.0 size=N/A time=00:08:40.33 bitrate=N/A    frame= 7815 fps= 15 q=-1.0 size=N/A time=00:08:40.86 bitrate=N/A    frame= 7823 fps= 15 q=-1.0 size=N/A time=00:08:41.40 bitrate=N/A    frame= 7831 fps= 15 q=-1.0 size=N/A time=00:08:41.93 bitrate=N/A    frame= 7839 fps= 15 q=-1.0 size=N/A time=00:08:42.46 bitrate=N/A    frame= 7848 fps= 15 q=-1.0 size=N/A time=00:08:43.06 bitrate=N/A    frame= 7856 fps= 15 q=-1.0 size=N/A time=00:08:43.60 bitrate=N/A    frame= 7865 fps= 15 q=-1.0 size=N/A time=00:08:44.20 bitrate=N/A    frame= 7873 fps= 15 q=-1.0 size=N/A time=00:08:44.73 bitrate=N/A    frame= 7881 fps= 15 q=-1.0 size=N/A time=00:08:45.26 bitrate=N/A    frame= 7890 fps= 15 q=-1.0 size=N/A time=00:08:45.86 bitrate=N/A    frame= 7899 fps= 15 q=-1.0 size=N/A time=00:08:46.46 bitrate=N/A    frame= 7906 fps= 15 q=-1.0 size=N/A time=00:08:46.93 bitrate=N/A    frame= 7916 fps= 15 q=-1.0 size=N/A time=00:08:47.60 bitrate=N/A    frame= 7923 fps= 15 q=-1.0 size=N/A time=00:08:48.06 bitrate=N/A    frame= 7931 fps= 15 q=-1.0 size=N/A time=00:08:48.60 bitrate=N/A    frame= 7940 fps= 15 q=-1.0 size=N/A time=00:08:49.20 bitrate=N/A    frame= 7948 fps= 15 q=-1.0 size=N/A time=00:08:49.73 bitrate=N/A    frame= 7958 fps= 15 q=-1.0 size=N/A time=00:08:50.40 bitrate=N/A    frame= 7966 fps= 15 q=-1.0 size=N/A time=00:08:50.93 bitrate=N/A    frame= 7974 fps= 15 q=-1.0 size=N/A time=00:08:51.46 bitrate=N/A    frame= 7983 fps= 15 q=-1.0 size=N/A time=00:08:52.06 bitrate=N/A    frame= 7990 fps= 15 q=-1.0 size=N/A time=00:08:52.53 bitrate=N/A    frame= 7998 fps= 15 q=-1.0 size=N/A time=00:08:53.06 bitrate=N/A    frame= 8006 fps= 15 q=-1.0 size=N/A time=00:08:53.60 bitrate=N/A    frame= 8015 fps= 15 q=-1.0 size=N/A time=00:08:54.20 bitrate=N/A    frame= 8023 fps= 15 q=-1.0 size=N/A time=00:08:54.73 bitrate=N/A    frame= 8031 fps= 15 q=-1.0 size=N/A time=00:08:55.26 bitrate=N/A    frame= 8038 fps= 15 q=-1.0 size=N/A time=00:08:55.73 bitrate=N/A    frame= 8046 fps= 15 q=-1.0 size=N/A time=00:08:56.26 bitrate=N/A    frame= 8055 fps= 15 q=-1.0 size=N/A time=00:08:56.86 bitrate=N/A    frame= 8062 fps= 15 q=-1.0 size=N/A time=00:08:57.33 bitrate=N/A    frame= 8071 fps= 15 q=-1.0 size=N/A time=00:08:57.93 bitrate=N/A    frame= 8079 fps= 15 q=-1.0 size=N/A time=00:08:58.46 bitrate=N/A    frame= 8086 fps= 15 q=-1.0 size=N/A time=00:08:58.93 bitrate=N/A    frame= 8094 fps= 15 q=-1.0 size=N/A time=00:08:59.46 bitrate=N/A    frame= 8103 fps= 15 q=-1.0 size=N/A time=00:09:00.06 bitrate=N/A    frame= 8111 fps= 15 q=-1.0 size=N/A time=00:09:00.60 bitrate=N/A    frame= 8119 fps= 15 q=-1.0 size=N/A time=00:09:01.13 bitrate=N/A    frame= 8127 fps= 15 q=-1.0 size=N/A time=00:09:01.66 bitrate=N/A    frame= 8136 fps= 15 q=-1.0 size=N/A time=00:09:02.26 bitrate=N/A    frame= 8145 fps= 15 q=-1.0 size=N/A time=00:09:02.86 bitrate=N/A    frame= 8153 fps= 15 q=-1.0 size=N/A time=00:09:03.40 bitrate=N/A    frame= 8161 fps= 15 q=-1.0 size=N/A time=00:09:03.93 bitrate=N/A    frame= 8169 fps= 15 q=-1.0 size=N/A time=00:09:04.46 bitrate=N/A    frame= 8178 fps= 15 q=-1.0 size=N/A time=00:09:05.06 bitrate=N/A    frame= 8186 fps= 15 q=-1.0 size=N/A time=00:09:05.60 bitrate=N/A    frame= 8194 fps= 15 q=-1.0 size=N/A time=00:09:06.13 bitrate=N/A    frame= 8202 fps= 15 q=-1.0 size=N/A time=00:09:06.66 bitrate=N/A    frame= 8209 fps= 15 q=-1.0 size=N/A time=00:09:07.13 bitrate=N/A    frame= 8218 fps= 15 q=-1.0 size=N/A time=00:09:07.73 bitrate=N/A    frame= 8226 fps= 15 q=-1.0 size=N/A time=00:09:08.26 bitrate=N/A    frame= 8234 fps= 15 q=-1.0 size=N/A time=00:09:08.80 bitrate=N/A    frame= 8242 fps= 15 q=-1.0 size=N/A time=00:09:09.33 bitrate=N/A    frame= 8252 fps= 15 q=-1.0 size=N/A time=00:09:10.00 bitrate=N/A    frame= 8260 fps= 15 q=-1.0 size=N/A time=00:09:10.53 bitrate=N/A    frame= 8268 fps= 15 q=-1.0 size=N/A time=00:09:11.06 bitrate=N/A    frame= 8276 fps= 15 q=-1.0 size=N/A time=00:09:11.60 bitrate=N/A    frame= 8284 fps= 15 q=-1.0 size=N/A time=00:09:12.13 bitrate=N/A    frame= 8292 fps= 15 q=-1.0 size=N/A time=00:09:12.66 bitrate=N/A    frame= 8301 fps= 15 q=-1.0 size=N/A time=00:09:13.26 bitrate=N/A    frame= 8309 fps= 15 q=-1.0 size=N/A time=00:09:13.80 bitrate=N/A    frame= 8317 fps= 15 q=-1.0 size=N/A time=00:09:14.33 bitrate=N/A    frame= 8326 fps= 15 q=-1.0 size=N/A time=00:09:14.93 bitrate=N/A    frame= 8333 fps= 15 q=-1.0 size=N/A time=00:09:15.40 bitrate=N/A    frame= 8342 fps= 15 q=-1.0 size=N/A time=00:09:16.00 bitrate=N/A    frame= 8350 fps= 15 q=-1.0 size=N/A time=00:09:16.53 bitrate=N/A    frame= 8358 fps= 15 q=-1.0 size=N/A time=00:09:17.06 bitrate=N/A    frame= 8367 fps= 15 q=-1.0 size=N/A time=00:09:17.66 bitrate=N/A    frame= 8374 fps= 15 q=-1.0 size=N/A time=00:09:18.13 bitrate=N/A    frame= 8382 fps= 15 q=-1.0 size=N/A time=00:09:18.66 bitrate=N/A    frame= 8391 fps= 15 q=-1.0 size=N/A time=00:09:19.26 bitrate=N/A    